v -0.365164 1.022163 0.759756
v -0.364848 1.021122 0.759564
v -0.403393 1.021122 0.696180
v -0.403709 1.022163 0.696371
v -0.441938 1.021122 0.632795
v -0.442253 1.022163 0.632987
v -0.364637 1.019881 0.759435
v -0.403181 1.019881 0.696051
v -0.441726 1.019881 0.632667
v -0.404105 1.023042 0.696613
v -0.365561 1.023042 0.759997
v -0.404561 1.023793 0.696890
v -0.366016 1.023793 0.760274
v -0.442650 1.023042 0.633228
v -0.443106 1.023793 0.633505
v -0.327016 1.023042 0.823381
v -0.326619 1.022163 0.823140
v -0.288471 1.023042 0.886765
v -0.288074 1.022163 0.886524
v -0.327472 1.023793 0.823658
v -0.288927 1.023793 0.887043
v -0.326304 1.021122 0.822948
v -0.326092 1.019881 0.822819
v -0.287759 1.021122 0.886332
v -0.287547 1.019881 0.886204
v -0.364559 1.016756 0.759388
v -0.364631 1.014989 0.759431
v -0.403175 1.014989 0.696047
v -0.403104 1.016756 0.696004
v -0.441720 1.014989 0.632663
v -0.441649 1.016756 0.632619
v -0.364733 1.013162 0.759494
v -0.403278 1.013162 0.696110
v -0.441823 1.013162 0.632725
v -0.403096 1.018407 0.695999
v -0.364551 1.018407 0.759383
v -0.441640 1.018407 0.632614
v -0.326006 1.018407 0.822767
v -0.326015 1.016756 0.822772
v -0.287461 1.018407 0.886151
v -0.287470 1.016756 0.886157
v -0.326086 1.014989 0.822816
v -0.326189 1.013162 0.822878
v -0.287541 1.014989 0.886200
v -0.287644 1.013162 0.886263
v -0.387936 1.027485 0.773604
v -0.384355 1.027841 0.771426
v -0.422900 1.027841 0.708042
v -0.426481 1.027485 0.710220
v -0.461444 1.027841 0.644657
v -0.465026 1.027485 0.646835
v -0.381214 1.028046 0.769516
v -0.419759 1.028046 0.706132
v -0.458304 1.028046 0.642748
v -0.430532 1.026981 0.712683
v -0.391987 1.026981 0.776067
v -0.435082 1.026326 0.715450
v -0.396537 1.026326 0.778834
v -0.469077 1.026981 0.649299
v -0.473627 1.026326 0.652066
v -0.353443 1.026981 0.839452
v -0.349392 1.027485 0.836988
v -0.314898 1.026981 0.902836
v -0.310847 1.027485 0.900372
v -0.357993 1.026326 0.842219
v -0.319448 1.026326 0.905603
v -0.345810 1.027841 0.834810
v -0.342670 1.028046 0.832900
v -0.307265 1.027841 0.898195
v -0.304125 1.028046 0.896285
v -0.376140 1.028033 0.766431
v -0.374152 1.027858 0.765221
v -0.412697 1.027858 0.701837
v -0.414685 1.028033 0.703046
v -0.451241 1.027858 0.638453
v -0.453230 1.028033 0.639662
v -0.372493 1.027601 0.764212
v -0.411037 1.027601 0.700828
v -0.449582 1.027601 0.637444
v -0.417030 1.028103 0.704472
v -0.378485 1.028103 0.767857
v -0.455575 1.028103 0.641088
v -0.339941 1.028103 0.831241
v -0.337596 1.028033 0.829815
v -0.301396 1.028103 0.894625
v -0.299051 1.028033 0.893199
v -0.335607 1.027858 0.828606
v -0.333948 1.027601 0.827597
v -0.297063 1.027858 0.891990
v -0.295403 1.027601 0.890981
v -0.408662 1.024223 0.786207
v -0.401615 1.025521 0.781922
v -0.440160 1.025521 0.718538
v -0.447207 1.024223 0.722823
v -0.478705 1.025521 0.655154
v -0.485751 1.024223 0.659439
v -0.457663 1.022091 0.729182
v -0.419118 1.022091 0.792566
v -0.472969 1.018783 0.738490
v -0.434425 1.018783 0.801874
v -0.496207 1.022091 0.665797
v -0.511514 1.018783 0.675105
v -0.380573 1.022091 0.855950
v -0.370117 1.024223 0.849592
v -0.342029 1.022091 0.919334
v -0.331572 1.024223 0.912976
v -0.395880 1.018783 0.865258
v -0.357335 1.018783 0.928642
v -0.363071 1.025521 0.845307
v -0.324526 1.025521 0.908691
v -0.482338 1.007992 0.831011
v -0.456022 1.013957 0.815008
v -0.494567 1.013957 0.751623
v -0.520883 1.007992 0.767627
v -0.533112 1.013957 0.688239
v -0.559428 1.007992 0.704242
v -0.550345 1.001268 0.785543
v -0.511800 1.001268 0.848927
v -0.581380 0.994164 0.804415
v -0.542835 0.994164 0.867800
v -0.588890 1.001268 0.722158
v -0.619924 0.994164 0.741031
v -0.473256 1.001268 0.912311
v -0.443794 1.007992 0.894395
v -0.434711 1.001268 0.975696
v -0.405249 1.007992 0.957780
v -0.504290 0.994164 0.931184
v -0.465746 0.994164 0.994568
v -0.417478 1.013957 0.878392
v -0.378933 1.013957 0.941776
v -0.370025 1.026910 0.762712
v -0.369110 1.026494 0.762156
v -0.407655 1.026494 0.698771
v -0.408569 1.026910 0.699327
v -0.446200 1.026494 0.635387
v -0.447114 1.026910 0.635943
v -0.368339 1.026041 0.761686
v -0.406884 1.026041 0.698302
v -0.445428 1.026041 0.634918
v -0.409679 1.027282 0.700002
v -0.371134 1.027282 0.763386
v -0.448224 1.027282 0.636618
v -0.332590 1.027282 0.826771
v -0.331480 1.026910 0.826096
v -0.294045 1.027282 0.890155
v -0.292935 1.026910 0.889480
v -0.330566 1.026494 0.825540
v -0.329794 1.026041 0.825071
v -0.292021 1.026494 0.888924
v -0.291249 1.026041 0.888455
v -0.367051 1.025037 0.760903
v -0.366509 1.024453 0.760574
v -0.405053 1.024453 0.697189
v -0.405596 1.025037 0.697519
v -0.443598 1.024453 0.633805
v -0.444141 1.025037 0.634135
v -0.406202 1.025561 0.697887
v -0.367657 1.025561 0.761272
v -0.444746 1.025561 0.634503
v -0.329112 1.025561 0.824656
v -0.328506 1.025037 0.824288
v -0.290567 1.025561 0.888040
v -0.289962 1.025037 0.887672
v -0.327964 1.024453 0.823958
v -0.289419 1.024453 0.887342
vn 0.782500 0.401600 -0.475800
vn 0.823700 0.265600 -0.500900
vn 0.823700 0.265600 -0.500900
vn 0.782500 0.401600 -0.475800
vn 0.823700 0.265600 -0.500900
vn 0.782500 0.401600 -0.475800
vn 0.846900 0.132300 -0.515000
vn 0.846900 0.132300 -0.515000
vn 0.846900 0.132300 -0.515000
vn 0.727700 0.524100 -0.442500
vn 0.727700 0.524100 -0.442500
vn 0.670900 0.619200 -0.408000
vn 0.670900 0.619200 -0.408000
vn 0.727700 0.524100 -0.442500
vn 0.670900 0.619200 -0.408000
vn 0.727700 0.524100 -0.442500
vn 0.782500 0.401600 -0.475800
vn 0.727700 0.524100 -0.442500
vn 0.782500 0.401600 -0.475800
vn 0.670900 0.619200 -0.408000
vn 0.670900 0.619200 -0.408000
vn 0.823700 0.265600 -0.500900
vn 0.846900 0.132300 -0.515000
vn 0.823700 0.265600 -0.500900
vn 0.846900 0.132300 -0.515000
vn 0.854100 -0.026600 -0.519400
vn 0.853100 -0.056500 -0.518700
vn 0.853100 -0.056500 -0.518700
vn 0.854100 -0.026600 -0.519400
vn 0.853100 -0.056500 -0.518700
vn 0.854100 -0.026600 -0.519400
vn 0.852600 -0.065800 -0.518400
vn 0.852600 -0.065800 -0.518400
vn 0.852600 -0.065800 -0.518400
vn 0.854000 0.031000 -0.519300
vn 0.854000 0.031000 -0.519300
vn 0.854000 0.031000 -0.519300
vn 0.854000 0.031000 -0.519300
vn 0.854100 -0.026600 -0.519400
vn 0.854000 0.031000 -0.519300
vn 0.854100 -0.026600 -0.519400
vn 0.853100 -0.056500 -0.518700
vn 0.852600 -0.065800 -0.518400
vn 0.853100 -0.056500 -0.518700
vn 0.852600 -0.065800 -0.518400
vn -0.081300 0.995500 0.049400
vn -0.060000 0.997500 0.036500
vn -0.060000 0.997500 0.036500
vn -0.081300 0.995500 0.049400
vn -0.060000 0.997500 0.036500
vn -0.081300 0.995500 0.049400
vn -0.031500 0.999300 0.019200
vn -0.031500 0.999300 0.019200
vn -0.031500 0.999300 0.019100
vn -0.097400 0.993500 0.059200
vn -0.097400 0.993500 0.059200
vn -0.109500 0.991700 0.066600
vn -0.109500 0.991700 0.066600
vn -0.097400 0.993500 0.059200
vn -0.109500 0.991700 0.066600
vn -0.097400 0.993500 0.059200
vn -0.081300 0.995500 0.049400
vn -0.097400 0.993500 0.059200
vn -0.081300 0.995500 0.049400
vn -0.109500 0.991700 0.066600
vn -0.109500 0.991700 0.066600
vn -0.060000 0.997500 0.036500
vn -0.031500 0.999300 0.019200
vn -0.060000 0.997500 0.036500
vn -0.031500 0.999300 0.019200
vn 0.042900 0.998700 -0.026100
vn 0.088300 0.994600 -0.053700
vn 0.088300 0.994600 -0.053700
vn 0.042900 0.998700 -0.026100
vn 0.088300 0.994600 -0.053700
vn 0.042900 0.998700 -0.026100
vn 0.140400 0.986400 -0.085300
vn 0.140400 0.986400 -0.085300
vn 0.140400 0.986400 -0.085300
vn 0.003300 1.000000 -0.002000
vn 0.003300 1.000000 -0.002000
vn 0.003300 1.000000 -0.002000
vn 0.003300 1.000000 -0.002000
vn 0.042900 0.998700 -0.026100
vn 0.003300 1.000000 -0.002000
vn 0.042900 0.998700 -0.026100
vn 0.088300 0.994600 -0.053700
vn 0.140400 0.986400 -0.085400
vn 0.088300 0.994600 -0.053700
vn 0.140400 0.986400 -0.085400
vn -0.139700 0.986500 0.084900
vn -0.123800 0.989400 0.075200
vn -0.123800 0.989400 0.075200
vn -0.139700 0.986500 0.084900
vn -0.123800 0.989400 0.075200
vn -0.139700 0.986500 0.084900
vn -0.150900 0.984300 0.091700
vn -0.150900 0.984300 0.091700
vn -0.157700 0.982800 0.095900
vn -0.157700 0.982800 0.095900
vn -0.150900 0.984300 0.091700
vn -0.157700 0.982800 0.095900
vn -0.150900 0.984300 0.091700
vn -0.139700 0.986500 0.084900
vn -0.150900 0.984300 0.091700
vn -0.139700 0.986500 0.084900
vn -0.157700 0.982800 0.095900
vn -0.157700 0.982800 0.095900
vn -0.123800 0.989400 0.075200
vn -0.123800 0.989400 0.075200
vn -0.163000 0.981600 0.099100
vn -0.161300 0.982000 0.098100
vn -0.161300 0.982000 0.098100
vn -0.163000 0.981600 0.099100
vn -0.161300 0.982000 0.098100
vn -0.163000 0.981600 0.099100
vn -0.163800 0.981400 0.099600
vn -0.163800 0.981400 0.099600
vn -0.164000 0.981400 0.099700
vn -0.164000 0.981400 0.099700
vn -0.163800 0.981400 0.099600
vn -0.164000 0.981400 0.099700
vn -0.163800 0.981400 0.099600
vn -0.163000 0.981600 0.099100
vn -0.163800 0.981400 0.099600
vn -0.163000 0.981600 0.099100
vn -0.164000 0.981400 0.099700
vn -0.164000 0.981400 0.099700
vn -0.161300 0.982000 0.098100
vn -0.161300 0.982000 0.098100
vn 0.272700 0.947700 -0.165800
vn 0.346500 0.914000 -0.210700
vn 0.346500 0.914000 -0.210700
vn 0.272700 0.947700 -0.165800
vn 0.346600 0.914000 -0.210700
vn 0.272700 0.947700 -0.165800
vn 0.411800 0.876200 -0.250400
vn 0.411800 0.876200 -0.250400
vn 0.411800 0.876200 -0.250400
vn 0.201800 0.971700 -0.122700
vn 0.201800 0.971700 -0.122700
vn 0.201800 0.971700 -0.122700
vn 0.201800 0.971700 -0.122700
vn 0.272700 0.947700 -0.165800
vn 0.201800 0.971700 -0.122700
vn 0.272700 0.947700 -0.165800
vn 0.346500 0.914000 -0.210700
vn 0.411800 0.876200 -0.250400
vn 0.346500 0.914000 -0.210700
vn 0.411800 0.876200 -0.250400
vn 0.544000 0.771100 -0.330800
vn 0.611800 0.698000 -0.372000
vn 0.611800 0.698000 -0.372000
vn 0.544000 0.771100 -0.330800
vn 0.611800 0.698000 -0.372100
vn 0.544000 0.771100 -0.330800
vn 0.474700 0.831400 -0.288700
vn 0.474700 0.831400 -0.288700
vn 0.474700 0.831400 -0.288700
vn 0.474700 0.831400 -0.288700
vn 0.544000 0.771100 -0.330800
vn 0.474700 0.831400 -0.288700
vn 0.544000 0.771100 -0.330800
vn 0.611800 0.698000 -0.372000
vn 0.611800 0.698000 -0.372000
vt 0.926600 0.488700
vt 0.937600 0.488700
vt 0.937600 0.687100
vt 0.926600 0.687100
vt 0.937600 0.885500
vt 0.926600 0.885500
vt 0.948700 0.488700
vt 0.948700 0.687100
vt 0.948700 0.885500
vt 0.915800 0.687100
vt 0.915800 0.488700
vt 0.905000 0.687100
vt 0.905000 0.488700
vt 0.915800 0.885500
vt 0.905000 0.885500
vt 0.915800 0.290300
vt 0.926600 0.290300
vt 0.915800 0.091800
vt 0.926600 0.091800
vt 0.905000 0.290300
vt 0.905000 0.091800
vt 0.937600 0.290300
vt 0.948700 0.290300
vt 0.937600 0.091800
vt 0.948700 0.091800
vt 0.971200 0.488700
vt 0.982500 0.488700
vt 0.982500 0.687100
vt 0.971200 0.687100
vt 0.982500 0.885500
vt 0.971200 0.885500
vt 0.993800 0.488700
vt 0.993800 0.687100
vt 0.993800 0.885500
vt 0.959900 0.687100
vt 0.959900 0.488700
vt 0.959900 0.885500
vt 0.959900 0.290300
vt 0.971200 0.290300
vt 0.959900 0.091800
vt 0.971200 0.091800
vt 0.982500 0.290300
vt 0.993800 0.290300
vt 0.982500 0.091800
vt 0.993800 0.091800
vt 0.744900 0.488700
vt 0.761200 0.488700
vt 0.761200 0.687100
vt 0.744900 0.687100
vt 0.761200 0.885500
vt 0.744900 0.885500
vt 0.775500 0.488700
vt 0.775500 0.687100
vt 0.775500 0.885500
vt 0.726400 0.687100
vt 0.726400 0.488700
vt 0.705400 0.687100
vt 0.705400 0.488700
vt 0.726400 0.885500
vt 0.705400 0.885500
vt 0.726400 0.290300
vt 0.744900 0.290300
vt 0.726400 0.091800
vt 0.744900 0.091800
vt 0.705400 0.290300
vt 0.705400 0.091800
vt 0.761200 0.290300
vt 0.775500 0.290300
vt 0.761200 0.091800
vt 0.775500 0.091800
vt 0.799300 0.488700
vt 0.809800 0.488700
vt 0.809800 0.687100
vt 0.799300 0.687100
vt 0.809800 0.885500
vt 0.799300 0.885500
vt 0.820000 0.488700
vt 0.820000 0.687100
vt 0.820000 0.885500
vt 0.788000 0.687100
vt 0.788000 0.488700
vt 0.788000 0.885500
vt 0.788000 0.290300
vt 0.799300 0.290300
vt 0.788000 0.091800
vt 0.799300 0.091800
vt 0.809800 0.290300
vt 0.820000 0.290300
vt 0.809800 0.091800
vt 0.820000 0.091800
vt 0.648800 0.488700
vt 0.681700 0.488700
vt 0.681700 0.687100
vt 0.648800 0.687100
vt 0.681700 0.885500
vt 0.648800 0.885500
vt 0.600100 0.687100
vt 0.600100 0.488700
vt 0.529300 0.687100
vt 0.529300 0.488700
vt 0.600100 0.885500
vt 0.529300 0.885500
vt 0.600100 0.290300
vt 0.648800 0.290300
vt 0.600100 0.091800
vt 0.648800 0.091800
vt 0.529300 0.290300
vt 0.529300 0.091800
vt 0.681700 0.290300
vt 0.681700 0.091800
vt 0.308500 0.488700
vt 0.429700 0.488700
vt 0.429700 0.687100
vt 0.308500 0.687100
vt 0.429700 0.885500
vt 0.308500 0.885500
vt 0.172900 0.687100
vt 0.172900 0.488700
vt 0.030200 0.687100
vt 0.030200 0.488700
vt 0.172900 0.885500
vt 0.030200 0.885500
vt 0.172900 0.290300
vt 0.308500 0.290300
vt 0.172900 0.091800
vt 0.308500 0.091800
vt 0.030200 0.290300
vt 0.030200 0.091800
vt 0.429700 0.290300
vt 0.429700 0.091800
vt 0.841100 0.488700
vt 0.851800 0.488700
vt 0.851800 0.687100
vt 0.841100 0.687100
vt 0.851800 0.885500
vt 0.841100 0.885500
vt 0.862500 0.488700
vt 0.862500 0.687100
vt 0.862500 0.885500
vt 0.830500 0.687100
vt 0.830500 0.488700
vt 0.830500 0.885500
vt 0.830500 0.290300
vt 0.841100 0.290300
vt 0.830500 0.091800
vt 0.841100 0.091800
vt 0.851800 0.290300
vt 0.862500 0.290300
vt 0.851800 0.091800
vt 0.862500 0.091800
vt 0.883700 0.488700
vt 0.894300 0.488700
vt 0.894300 0.687100
vt 0.883700 0.687100
vt 0.894300 0.885500
vt 0.883700 0.885500
vt 0.873100 0.687100
vt 0.873100 0.488700
vt 0.873100 0.885500
vt 0.873100 0.290300
vt 0.883700 0.290300
vt 0.873100 0.091800
vt 0.883700 0.091800
vt 0.894300 0.290300
vt 0.894300 0.091800
f 1/1/1 2/2/2 3/3/3
f 1/1/1 3/3/3 4/4/4
f 4/4/4 3/3/3 5/5/5
f 4/4/4 5/5/5 6/6/6
f 2/2/2 7/7/7 8/8/8
f 2/2/2 8/8/8 3/3/3
f 3/3/3 8/8/8 9/9/9
f 3/3/3 9/9/9 5/5/5
f 1/1/1 4/4/4 10/10/10
f 1/1/1 10/10/10 11/11/11
f 11/11/11 10/10/10 12/12/12
f 11/11/11 12/12/12 13/13/13
f 4/4/4 6/6/6 14/14/14
f 4/4/4 14/14/14 10/10/10
f 10/10/10 14/14/14 15/15/15
f 10/10/10 15/15/15 12/12/12
f 1/1/1 11/11/11 16/16/16
f 1/1/1 16/16/16 17/17/17
f 17/17/17 16/16/16 18/18/18
f 17/17/17 18/18/18 19/19/19
f 11/11/11 13/13/13 20/20/20
f 11/11/11 20/20/20 16/16/16
f 16/16/16 20/20/20 21/21/21
f 16/16/16 21/21/21 18/18/18
f 1/1/1 17/17/17 22/22/22
f 1/1/1 22/22/22 2/2/2
f 2/2/2 22/22/22 23/23/23
f 2/2/2 23/23/23 7/7/7
f 17/17/17 19/19/19 24/24/24
f 17/17/17 24/24/24 22/22/22
f 22/22/22 24/24/24 25/25/25
f 22/22/22 25/25/25 23/23/23
f 26/26/26 27/27/27 28/28/28
f 26/26/26 28/28/28 29/29/29
f 29/29/29 28/28/28 30/30/30
f 29/29/29 30/30/30 31/31/31
f 27/27/27 32/32/32 33/33/33
f 27/27/27 33/33/33 28/28/28
f 28/28/28 33/33/33 34/34/34
f 28/28/28 34/34/34 30/30/30
f 26/26/26 29/29/29 35/35/35
f 26/26/26 35/35/35 36/36/36
f 36/36/36 35/35/35 8/8/8
f 36/36/36 8/8/8 7/7/7
f 29/29/29 31/31/31 37/37/37
f 29/29/29 37/37/37 35/35/35
f 35/35/35 37/37/37 9/9/9
f 35/35/35 9/9/9 8/8/8
f 26/26/26 36/36/36 38/38/38
f 26/26/26 38/38/38 39/39/39
f 39/39/39 38/38/38 40/40/40
f 39/39/39 40/40/40 41/41/41
f 36/36/36 7/7/7 23/23/23
f 36/36/36 23/23/23 38/38/38
f 38/38/38 23/23/23 25/25/25
f 38/38/38 25/25/25 40/40/40
f 26/26/26 39/39/39 42/42/42
f 26/26/26 42/42/42 27/27/27
f 27/27/27 42/42/42 43/43/43
f 27/27/27 43/43/43 32/32/32
f 39/39/39 41/41/41 44/44/44
f 39/39/39 44/44/44 42/42/42
f 42/42/42 44/44/44 45/45/45
f 42/42/42 45/45/45 43/43/43
f 46/46/46 47/47/47 48/48/48
f 46/46/46 48/48/48 49/49/49
f 49/49/49 48/48/48 50/50/50
f 49/49/49 50/50/50 51/51/51
f 47/47/47 52/52/52 53/53/53
f 47/47/47 53/53/53 48/48/48
f 48/48/48 53/53/53 54/54/54
f 48/48/48 54/54/54 50/50/50
f 46/46/46 49/49/49 55/55/55
f 46/46/46 55/55/55 56/56/56
f 56/56/56 55/55/55 57/57/57
f 56/56/56 57/57/57 58/58/58
f 49/49/49 51/51/51 59/59/59
f 49/49/49 59/59/59 55/55/55
f 55/55/55 59/59/59 60/60/60
f 55/55/55 60/60/60 57/57/57
f 46/46/46 56/56/56 61/61/61
f 46/46/46 61/61/61 62/62/62
f 62/62/62 61/61/61 63/63/63
f 62/62/62 63/63/63 64/64/64
f 56/56/56 58/58/58 65/65/65
f 56/56/56 65/65/65 61/61/61
f 61/61/61 65/65/65 66/66/66
f 61/61/61 66/66/66 63/63/63
f 46/46/46 62/62/62 67/67/67
f 46/46/46 67/67/67 47/47/47
f 47/47/47 67/67/67 68/68/68
f 47/47/47 68/68/68 52/52/52
f 62/62/62 64/64/64 69/69/69
f 62/62/62 69/69/69 67/67/67
f 67/67/67 69/69/69 70/70/70
f 67/67/67 70/70/70 68/68/68
f 71/71/71 72/72/72 73/73/73
f 71/71/71 73/73/73 74/74/74
f 74/74/74 73/73/73 75/75/75
f 74/74/74 75/75/75 76/76/76
f 72/72/72 77/77/77 78/78/78
f 72/72/72 78/78/78 73/73/73
f 73/73/73 78/78/78 79/79/79
f 73/73/73 79/79/79 75/75/75
f 71/71/71 74/74/74 80/80/80
f 71/71/71 80/80/80 81/81/81
f 81/81/81 80/80/80 53/53/53
f 81/81/81 53/53/53 52/52/52
f 74/74/74 76/76/76 82/82/82
f 74/74/74 82/82/82 80/80/80
f 80/80/80 82/82/82 54/54/54
f 80/80/80 54/54/54 53/53/53
f 71/71/71 81/81/81 83/83/83
f 71/71/71 83/83/83 84/84/84
f 84/84/84 83/83/83 85/85/85
f 84/84/84 85/85/85 86/86/86
f 81/81/81 52/52/52 68/68/68
f 81/81/81 68/68/68 83/83/83
f 83/83/83 68/68/68 70/70/70
f 83/83/83 70/70/70 85/85/85
f 71/71/71 84/84/84 87/87/87
f 71/71/71 87/87/87 72/72/72
f 72/72/72 87/87/87 88/88/88
f 72/72/72 88/88/88 77/77/77
f 84/84/84 86/86/86 89/89/89
f 84/84/84 89/89/89 87/87/87
f 87/87/87 89/89/89 90/90/90
f 87/87/87 90/90/90 88/88/88
f 91/91/91 92/92/92 93/93/93
f 91/91/91 93/93/93 94/94/94
f 94/94/94 93/93/93 95/95/95
f 94/94/94 95/95/95 96/96/96
f 92/92/92 58/58/58 57/57/57
f 92/92/92 57/57/57 93/93/93
f 93/93/93 57/57/57 60/60/60
f 93/93/93 60/60/60 95/95/95
f 91/91/91 94/94/94 97/97/97
f 91/91/91 97/97/97 98/98/98
f 98/98/98 97/97/97 99/99/99
f 98/98/98 99/99/99 100/100/100
f 94/94/94 96/96/96 101/101/101
f 94/94/94 101/101/101 97/97/97
f 97/97/97 101/101/101 102/102/102
f 97/97/97 102/102/102 99/99/99
f 91/91/91 98/98/98 103/103/103
f 91/91/91 103/103/103 104/104/104
f 104/104/104 103/103/103 105/105/105
f 104/104/104 105/105/105 106/106/106
f 98/98/98 100/100/100 107/107/107
f 98/98/98 107/107/107 103/103/103
f 103/103/103 107/107/107 108/108/108
f 103/103/103 108/108/108 105/105/105
f 91/91/91 104/104/104 109/109/109
f 91/91/91 109/109/109 92/92/92
f 92/92/92 109/109/109 65/65/65
f 92/92/92 65/65/65 58/58/58
f 104/104/104 106/106/106 110/110/110
f 104/104/104 110/110/110 109/109/109
f 109/109/109 110/110/110 66/66/66
f 109/109/109 66/66/66 65/65/65
f 111/111/111 112/112/112 113/113/113
f 111/111/111 113/113/113 114/114/114
f 114/114/114 113/113/113 115/115/115
f 114/114/114 115/115/115 116/116/116
f 112/112/112 100/100/100 99/99/99
f 112/112/112 99/99/99 113/113/113
f 113/113/113 99/99/99 102/102/102
f 113/113/113 102/102/102 115/115/115
f 111/111/111 114/114/114 117/117/117
f 111/111/111 117/117/117 118/118/118
f 118/118/118 117/117/117 119/119/119
f 118/118/118 119/119/119 120/120/120
f 114/114/114 116/116/116 121/121/121
f 114/114/114 121/121/121 117/117/117
f 117/117/117 121/121/121 122/122/122
f 117/117/117 122/122/122 119/119/119
f 111/111/111 118/118/118 123/123/123
f 111/111/111 123/123/123 124/124/124
f 124/124/124 123/123/123 125/125/125
f 124/124/124 125/125/125 126/126/126
f 118/118/118 120/120/120 127/127/127
f 118/118/118 127/127/127 123/123/123
f 123/123/123 127/127/127 128/128/128
f 123/123/123 128/128/128 125/125/125
f 111/111/111 124/124/124 129/129/129
f 111/111/111 129/129/129 112/112/112
f 112/112/112 129/129/129 107/107/107
f 112/112/112 107/107/107 100/100/100
f 124/124/124 126/126/126 130/130/130
f 124/124/124 130/130/130 129/129/129
f 129/129/129 130/130/130 108/108/108
f 129/129/129 108/108/108 107/107/107
f 131/131/131 132/132/132 133/133/133
f 131/131/131 133/133/133 134/134/134
f 134/134/134 133/133/133 135/135/135
f 134/134/134 135/135/135 136/136/136
f 132/132/132 137/137/137 138/138/138
f 132/132/132 138/138/138 133/133/133
f 133/133/133 138/138/138 139/139/139
f 133/133/133 139/139/139 135/135/135
f 131/131/131 134/134/134 140/140/140
f 131/131/131 140/140/140 141/141/141
f 141/141/141 140/140/140 78/78/78
f 141/141/141 78/78/78 77/77/77
f 134/134/134 136/136/136 142/142/142
f 134/134/134 142/142/142 140/140/140
f 140/140/140 142/142/142 79/79/79
f 140/140/140 79/79/79 78/78/78
f 131/131/131 141/141/141 143/143/143
f 131/131/131 143/143/143 144/144/144
f 144/144/144 143/143/143 145/145/145
f 144/144/144 145/145/145 146/146/146
f 141/141/141 77/77/77 88/88/88
f 141/141/141 88/88/88 143/143/143
f 143/143/143 88/88/88 90/90/90
f 143/143/143 90/90/90 145/145/145
f 131/131/131 144/144/144 147/147/147
f 131/131/131 147/147/147 132/132/132
f 132/132/132 147/147/147 148/148/148
f 132/132/132 148/148/148 137/137/137
f 144/144/144 146/146/146 149/149/149
f 144/144/144 149/149/149 147/147/147
f 147/147/147 149/149/149 150/150/150
f 147/147/147 150/150/150 148/148/148
f 151/151/151 152/152/152 153/153/153
f 151/151/151 153/153/153 154/154/154
f 154/154/154 153/153/153 155/155/155
f 154/154/154 155/155/155 156/156/156
f 152/152/152 13/13/13 12/12/12
f 152/152/152 12/12/12 153/153/153
f 153/153/153 12/12/12 15/15/15
f 153/153/153 15/15/15 155/155/155
f 151/151/151 154/154/154 157/157/157
f 151/151/151 157/157/157 158/158/158
f 158/158/158 157/157/157 138/138/138
f 158/158/158 138/138/138 137/137/137
f 154/154/154 156/156/156 159/159/159
f 154/154/154 159/159/159 157/157/157
f 157/157/157 159/159/159 139/139/139
f 157/157/157 139/139/139 138/138/138
f 151/151/151 158/158/158 160/160/160
f 151/151/151 160/160/160 161/161/161
f 161/161/161 160/160/160 162/162/162
f 161/161/161 162/162/162 163/163/163
f 158/158/158 137/137/137 148/148/148
f 158/158/158 148/148/148 160/160/160
f 160/160/160 148/148/148 150/150/150
f 160/160/160 150/150/150 162/162/162
f 151/151/151 161/161/161 164/164/164
f 151/151/151 164/164/164 152/152/152
f 152/152/152 164/164/164 20/20/20
f 152/152/152 20/20/20 13/13/13
f 161/161/161 163/163/163 165/165/165
f 161/161/161 165/165/165 164/164/164
f 164/164/164 165/165/165 21/21/21
f 164/164/164 21/21/21 20/20/20
