v -1.652403 0.981547 0.535528
v -1.652403 0.943574 0.535528
v -2.488351 0.943574 0.535528
v -2.488351 0.981547 0.535528
v -1.652403 0.943574 2.277998
v -1.652404 0.981547 2.277999
v -2.488352 0.981547 2.277998
v -2.488352 0.943574 2.277998
v -2.491352 0.943574 2.274998
v -2.491352 0.981547 2.274998
v -2.491351 0.981547 0.538528
v -2.491351 0.943574 0.538528
v -1.652404 0.984547 2.274999
v -1.652403 0.984547 0.538528
v -2.488351 0.984547 0.538528
v -2.488352 0.984547 2.274998
v -1.652403 0.943574 2.277998
v -1.652403 0.940574 2.274998
v -1.649403 0.943574 2.274999
v -2.488352 0.943574 2.277998
v -2.491352 0.943574 2.274998
v -2.488352 0.940574 2.274998
v -2.488351 0.943574 0.535528
v -2.488351 0.940574 0.538528
v -2.491351 0.943574 0.538528
v -1.652404 0.981547 2.277999
v -1.649404 0.981547 2.274999
v -1.652404 0.984547 2.274999
v -1.652403 0.981547 0.535528
v -1.652403 0.984547 0.538528
v -1.649403 0.981547 0.538528
v -2.491352 0.981547 2.274998
v -2.488352 0.981547 2.277998
v -2.488352 0.984547 2.274998
v -2.488351 0.981547 0.535528
v -2.491351 0.981547 0.538528
v -2.488351 0.984547 0.538528
v -1.652403 0.943574 2.277998
v -2.488352 0.943574 2.277998
v -2.488352 0.940574 2.274998
v -1.652403 0.940574 2.274998
v -1.652403 0.940574 0.538528
v -2.488351 0.940574 0.538528
v -2.488351 0.943574 0.535528
v -1.652403 0.943574 0.535528
v -2.491352 0.943574 2.274998
v -2.491351 0.943574 0.538528
v -2.488351 0.940574 0.538528
v -2.488352 0.940574 2.274998
v -1.652403 0.943574 0.535528
v -1.652403 0.981547 0.535528
v -1.649403 0.981547 0.538528
v -1.649403 0.943574 0.538528
v -2.488352 0.943574 2.277998
v -2.488352 0.981547 2.277998
v -2.491352 0.981547 2.274998
v -2.491352 0.943574 2.274998
v -2.491351 0.943574 0.538528
v -2.491351 0.981547 0.538528
v -2.488351 0.981547 0.535528
v -2.488351 0.943574 0.535528
v -1.652404 0.984547 2.274999
v -2.488352 0.984547 2.274998
v -2.488352 0.981547 2.277998
v -1.652404 0.981547 2.277999
v -2.488352 0.984547 2.274998
v -2.488351 0.984547 0.538528
v -2.491351 0.981547 0.538528
v -2.491352 0.981547 2.274998
v -1.652403 0.981547 0.535528
v -2.488351 0.981547 0.535528
v -2.488351 0.984547 0.538528
v -1.652403 0.984547 0.538528
v -1.652403 0.940574 0.538528
v -1.652403 0.940574 2.274998
v -2.488352 0.940574 2.274998
v -2.488351 0.940574 0.538528
vn 0.000000 0.000000 -1.000000
vn 0.000000 0.000000 -1.000000
vn 0.000000 0.000000 -1.000000
vn 0.000000 0.000000 -1.000000
vn -0.000000 -0.000000 1.000000
vn -0.000000 -0.000000 1.000000
vn -0.000000 -0.000000 1.000000
vn -0.000000 -0.000000 1.000000
vn -1.000000 -0.000000 -0.000000
vn -1.000000 -0.000000 -0.000000
vn -1.000000 -0.000000 -0.000000
vn -1.000000 -0.000000 -0.000000
vn 0.000000 1.000000 -0.000000
vn 0.000000 1.000000 -0.000000
vn 0.000000 1.000000 -0.000000
vn 0.000000 1.000000 -0.000000
vn 0.577300 -0.577400 0.577400
vn 0.577300 -0.577400 0.577400
vn 0.577300 -0.577400 0.577400
vn -0.577300 -0.577300 0.577400
vn -0.577300 -0.577300 0.577400
vn -0.577300 -0.577300 0.577400
vn -0.577400 -0.577300 -0.577400
vn -0.577400 -0.577300 -0.577400
vn -0.577400 -0.577300 -0.577400
vn 0.577300 0.577300 0.577400
vn 0.577300 0.577300 0.577400
vn 0.577300 0.577300 0.577400
vn 0.577400 0.577300 -0.577400
vn 0.577400 0.577300 -0.577400
vn 0.577400 0.577300 -0.577400
vn -0.577400 0.577400 0.577300
vn -0.577400 0.577400 0.577300
vn -0.577400 0.577400 0.577300
vn -0.577400 0.577400 -0.577300
vn -0.577400 0.577400 -0.577300
vn -0.577400 0.577400 -0.577300
vn 0.000000 -0.707100 0.707100
vn 0.000000 -0.707100 0.707100
vn 0.000000 -0.707100 0.707100
vn 0.000000 -0.707100 0.707100
vn 0.000000 -0.707100 -0.707100
vn 0.000000 -0.707100 -0.707100
vn 0.000000 -0.707100 -0.707100
vn 0.000000 -0.707100 -0.707100
vn -0.707100 -0.707100 -0.000000
vn -0.707100 -0.707100 -0.000000
vn -0.707100 -0.707100 -0.000000
vn -0.707100 -0.707100 -0.000000
vn 0.707100 0.000000 -0.707100
vn 0.707100 0.000000 -0.707100
vn 0.707100 0.000000 -0.707100
vn 0.707100 0.000000 -0.707100
vn -0.707100 -0.000000 0.707100
vn -0.707100 -0.000000 0.707100
vn -0.707100 -0.000000 0.707100
vn -0.707100 -0.000000 0.707100
vn -0.707100 -0.000000 -0.707100
vn -0.707100 -0.000000 -0.707100
vn -0.707100 -0.000000 -0.707100
vn -0.707100 -0.000000 -0.707100
vn -0.000000 0.707100 0.707100
vn -0.000000 0.707100 0.707100
vn -0.000000 0.707100 0.707100
vn -0.000000 0.707100 0.707100
vn -0.707100 0.707100 -0.000000
vn -0.707100 0.707100 -0.000000
vn -0.707100 0.707100 -0.000000
vn -0.707100 0.707100 -0.000000
vn 0.000000 0.707100 -0.707100
vn 0.000000 0.707100 -0.707100
vn 0.000000 0.707100 -0.707100
vn 0.000000 0.707100 -0.707100
vn 0.000000 -1.000000 -0.000000
vn 0.000000 -1.000000 -0.000000
vn 0.000000 -1.000000 -0.000000
vn 0.000000 -1.000000 -0.000000
vt 0.964900 0.574100
vt 0.994100 0.574100
vt 0.994100 0.994100
vt 0.964900 0.994100
vt 0.965300 0.149200
vt 0.994400 0.149200
vt 0.994400 0.563000
vt 0.965300 0.563000
vt 0.006900 0.133200
vt 0.006900 0.101900
vt 0.955300 0.101900
vt 0.955300 0.133200
vt 0.992800 0.572700
vt 0.002100 0.572700
vt 0.002100 0.135300
vt 0.992800 0.135300
vt 0.965300 0.149200
vt 0.963000 0.149200
vt 0.965300 0.147700
vt 0.965300 0.563000
vt 0.965300 0.564500
vt 0.963000 0.563000
vt 0.994100 0.994100
vt 0.996400 0.994100
vt 0.994100 0.995600
vt 0.994400 0.149200
vt 0.994400 0.147700
vt 0.996700 0.149200
vt 0.964900 0.574100
vt 0.962600 0.574100
vt 0.964900 0.572600
vt 0.006900 0.101900
vt 0.005300 0.101900
vt 0.006900 0.099400
vt 0.964900 0.994100
vt 0.964900 0.995600
vt 0.962600 0.994100
vt 0.965300 0.149200
vt 0.965300 0.563000
vt 0.963000 0.563000
vt 0.963000 0.149200
vt 0.955800 0.994100
vt 0.955800 0.574100
vt 0.957500 0.574100
vt 0.957500 0.994100
vt 0.006900 0.133200
vt 0.955300 0.133200
vt 0.955300 0.135700
vt 0.006900 0.135700
vt 0.994100 0.574100
vt 0.964900 0.574100
vt 0.964900 0.572600
vt 0.994100 0.572600
vt 0.965300 0.563000
vt 0.994400 0.563000
vt 0.994400 0.564500
vt 0.965300 0.564500
vt 0.955300 0.133200
vt 0.955300 0.101900
vt 0.956900 0.101900
vt 0.956900 0.133200
vt 0.992800 0.572700
vt 0.992800 0.135300
vt 0.994500 0.135300
vt 0.994500 0.572700
vt 0.992800 0.135300
vt 0.002100 0.135300
vt 0.002100 0.133700
vt 0.992800 0.133700
vt 0.964900 0.574100
vt 0.964900 0.994100
vt 0.962600 0.994100
vt 0.962600 0.574100
vt 0.955800 0.994100
vt 0.006700 0.994100
vt 0.006700 0.574100
vt 0.955800 0.574100
f 1/1/1 2/2/2 3/3/3
f 1/1/1 3/3/3 4/4/4
f 5/5/5 6/6/6 7/7/7
f 5/5/5 7/7/7 8/8/8
f 9/9/9 10/10/10 11/11/11
f 9/9/9 11/11/11 12/12/12
f 13/13/13 14/14/14 15/15/15
f 13/13/13 15/15/15 16/16/16
f 17/17/17 18/18/18 19/19/19
f 20/20/20 21/21/21 22/22/22
f 23/23/23 24/24/24 25/25/25
f 26/26/26 27/27/27 28/28/28
f 29/29/29 30/30/30 31/31/31
f 32/32/32 33/33/33 34/34/34
f 35/35/35 36/36/36 37/37/37
f 38/38/38 39/39/39 40/40/40
f 38/38/38 40/40/40 41/41/41
f 42/42/42 43/43/43 44/44/44
f 42/42/42 44/44/44 45/45/45
f 46/46/46 47/47/47 48/48/48
f 46/46/46 48/48/48 49/49/49
f 50/50/50 51/51/51 52/52/52
f 50/50/50 52/52/52 53/53/53
f 54/54/54 55/55/55 56/56/56
f 54/54/54 56/56/56 57/57/57
f 58/58/58 59/59/59 60/60/60
f 58/58/58 60/60/60 61/61/61
f 62/62/62 63/63/63 64/64/64
f 62/62/62 64/64/64 65/65/65
f 66/66/66 67/67/67 68/68/68
f 66/66/66 68/68/68 69/69/69
f 70/70/70 71/71/71 72/72/72
f 70/70/70 72/72/72 73/73/73
f 74/74/74 75/75/75 76/76/76
f 74/74/74 76/76/76 77/77/77
