v 0.185660 2.581784 -1.629580
v 0.185660 3.195911 -1.629580
v 0.188366 3.195911 -1.628459
v 0.188366 2.581784 -1.628459
v 0.189487 3.195911 -1.625753
v 0.189487 2.581784 -1.625753
v 0.188366 3.195911 -1.623047
v 0.188366 2.581784 -1.623047
v 0.185660 3.195911 -1.621927
v 0.185660 2.581784 -1.621927
v 0.182954 3.195911 -1.623047
v 0.182954 2.581784 -1.623047
v 0.181833 3.195911 -1.625753
v 0.181833 2.581784 -1.625753
v 0.182954 3.195911 -1.628459
v 0.182954 2.581784 -1.628459
vn 0.000000 0.000000 -1.000000
vn 0.000000 0.000000 -1.000000
vn 0.707100 0.000000 -0.707100
vn 0.707100 0.000000 -0.707100
vn 1.000000 0.000000 0.000000
vn 1.000000 0.000000 0.000000
vn 0.707100 0.000000 0.707100
vn 0.707100 0.000000 0.707100
vn 0.000000 0.000000 1.000000
vn 0.000000 0.000000 1.000000
vn -0.707100 0.000000 0.707100
vn -0.707100 0.000000 0.707100
vn -1.000000 0.000000 0.000000
vn -1.000000 0.000000 0.000000
vn -0.707100 0.000000 -0.707100
vn -0.707100 0.000000 -0.707100
vt 0.000000 0.000000
vt 0.000000 0.000000
vt 0.000000 0.000000
vt 0.000000 0.000000
vt 0.000000 0.000000
vt 0.000000 0.000000
vt 0.000000 0.000000
vt 0.000000 0.000000
vt 0.000000 0.000000
vt 0.000000 0.000000
vt 0.000000 0.000000
vt 0.000000 0.000000
vt 0.000000 0.000000
vt 0.000000 0.000000
vt 0.000000 0.000000
vt 0.000000 0.000000
f 1/1/1 2/2/2 3/3/3
f 1/1/1 3/3/3 4/4/4
f 4/4/4 3/3/3 5/5/5
f 4/4/4 5/5/5 6/6/6
f 6/6/6 5/5/5 7/7/7
f 6/6/6 7/7/7 8/8/8
f 8/8/8 7/7/7 9/9/9
f 8/8/8 9/9/9 10/10/10
f 10/10/10 9/9/9 11/11/11
f 10/10/10 11/11/11 12/12/12
f 12/12/12 11/11/11 13/13/13
f 12/12/12 13/13/13 14/14/14
f 14/14/14 13/13/13 15/15/15
f 14/14/14 15/15/15 16/16/16
f 2/2/2 1/1/1 16/16/16
f 2/2/2 16/16/16 15/15/15
