v 0.448525 0.943574 0.489213
v 0.448525 0.982838 0.489213
v 0.448524 0.982838 1.317660
v 0.448525 0.943574 1.317660
v 0.448525 0.943574 0.489213
v 0.445525 0.940574 0.489213
v 0.445525 0.943574 0.486213
v 0.448525 0.943574 0.489213
v 0.448525 0.943574 1.317660
v 0.445525 0.940574 1.317660
v 0.445525 0.940574 0.489213
v 0.448525 0.943574 1.317660
v 0.448524 0.982838 1.317660
v 0.445524 0.982838 1.320660
v 0.445525 0.943574 1.320660
v 0.448524 0.982838 1.317660
v 0.448525 0.982838 0.489213
v 0.445525 0.985838 0.489213
v 0.445524 0.985838 1.317660
vn 1.000000 0.000000 0.000000
vn 1.000000 0.000000 0.000000
vn 1.000000 0.000000 0.000000
vn 1.000000 0.000000 0.000000
vn 0.577300 -0.577300 -0.577300
vn 0.577300 -0.577300 -0.577300
vn 0.577300 -0.577300 -0.577300
vn 0.707100 -0.707100 0.000000
vn 0.707100 -0.707100 0.000000
vn 0.707100 -0.707100 0.000000
vn 0.707100 -0.707100 0.000000
vn 0.707100 0.000000 0.707100
vn 0.707100 0.000000 0.707100
vn 0.707100 0.000000 0.707100
vn 0.707100 0.000000 0.707100
vn 0.707100 0.707100 0.000000
vn 0.707100 0.707100 0.000000
vn 0.707100 0.707100 0.000000
vn 0.707100 0.707100 0.000000
vt 0.961100 0.015300
vt 0.985500 0.015300
vt 0.985500 0.639600
vt 0.961100 0.639600
vt 0.961100 0.015300
vt 0.959200 0.015300
vt 0.961100 0.013100
vt 0.961100 0.015300
vt 0.961100 0.639600
vt 0.959200 0.639600
vt 0.959200 0.015300
vt 0.961100 0.639600
vt 0.985500 0.639600
vt 0.985500 0.641900
vt 0.961100 0.641900
vt 0.985500 0.639600
vt 0.985500 0.015300
vt 0.987400 0.015300
vt 0.987400 0.639600
f 1/1/1 2/2/2 3/3/3
f 1/1/1 3/3/3 4/4/4
f 5/5/5 6/6/6 7/7/7
f 8/8/8 9/9/9 10/10/10
f 8/8/8 10/10/10 11/11/11
f 12/12/12 13/13/13 14/14/14
f 12/12/12 14/14/14 15/15/15
f 16/16/16 17/17/17 18/18/18
f 16/16/16 18/18/18 19/19/19
