v -2.474593 1.807074 0.508139
v -2.474593 1.807073 -0.715968
v -2.474624 1.812856 -0.720270
v -2.474624 1.812856 0.512442
v -2.476634 1.814856 0.514421
v -2.476634 1.814856 -0.722048
v -2.483100 1.816856 -0.723254
v -2.482914 1.814856 0.514421
v -2.474593 1.030104 -0.715968
v -2.474593 1.030104 0.508140
v -2.474624 1.024321 0.512442
v -2.474624 1.024321 -0.720270
v -2.474582 1.803074 -0.714971
v -2.474582 1.803074 0.507142
v -2.474582 1.034104 0.507143
v -2.474582 1.034104 -0.714971
v -2.474597 1.032764 0.511161
v -2.474597 1.804414 0.511161
v -2.474620 1.808796 0.514421
v -2.474620 1.028382 0.514421
v -2.476634 1.812856 -0.724258
v -2.476634 1.024321 -0.724258
v -2.481100 1.024321 -0.724258
v -2.481100 1.812856 -0.724258
v -2.483100 1.024321 0.514413
v -2.482914 1.814856 0.514421
v -2.483100 1.816856 -0.723254
v -2.483100 1.024321 -0.722450
v -2.476634 1.024321 0.516431
v -2.476634 1.812856 0.516430
v -2.481100 1.812856 0.516430
v -2.481100 1.024321 0.516431
v -2.476634 1.022321 -0.722249
v -2.476634 1.022321 0.514421
v -2.481100 1.022321 0.514421
v -2.481100 1.022321 -0.722249
v -2.483100 1.816856 -0.723254
v -2.482914 1.814856 0.514421
v -2.483100 1.870401 0.516430
v -2.483100 1.870401 -0.724258
v -2.474597 1.804414 -0.718989
v -2.474593 1.807073 -0.715968
v -2.474582 1.803074 -0.714971
v -2.474593 1.030104 -0.715968
v -2.474597 1.032764 -0.718989
v -2.474582 1.034104 -0.714971
v -2.474593 1.030104 0.508140
v -2.474582 1.034104 0.507143
v -2.474597 1.032764 0.511161
v -2.474593 1.807074 0.508139
v -2.474597 1.804414 0.511161
v -2.474582 1.803074 0.507142
v -2.474624 1.812856 0.512442
v -2.476634 1.814856 0.514421
v -2.476634 1.812856 0.516430
v -2.474620 1.808796 0.514421
v -2.476634 1.024321 0.516431
v -2.476634 1.022321 0.514421
v -2.474624 1.024321 0.512442
v -2.474620 1.028382 0.514421
v -2.474624 1.024321 -0.720270
v -2.476634 1.022321 -0.722249
v -2.476634 1.024321 -0.724258
v -2.474620 1.028381 -0.722249
v -2.474620 1.808796 -0.722249
v -2.476634 1.812856 -0.724258
v -2.476634 1.814856 -0.722048
v -2.474624 1.812856 -0.720270
v -2.483100 1.024321 -0.722450
v -2.481100 1.024321 -0.724258
v -2.481100 1.022321 -0.722249
v -2.481100 1.024321 0.516431
v -2.483100 1.024321 0.514413
v -2.481100 1.022321 0.514421
v -2.474582 1.034104 -0.714971
v -2.474582 1.034104 0.507143
v -2.474593 1.030104 0.508140
v -2.474593 1.030104 -0.715968
v -2.474582 1.803074 -0.714971
v -2.474582 1.034104 -0.714971
v -2.474597 1.032764 -0.718989
v -2.474597 1.804414 -0.718989
v -2.474593 1.807073 -0.715968
v -2.474593 1.807074 0.508139
v -2.474582 1.803074 0.507142
v -2.474582 1.803074 -0.714971
v -2.474582 1.034104 0.507143
v -2.474582 1.803074 0.507142
v -2.474597 1.804414 0.511161
v -2.474597 1.032764 0.511161
v -2.474593 1.807074 0.508139
v -2.474624 1.812856 0.512442
v -2.474620 1.808796 0.514421
v -2.474597 1.804414 0.511161
v -2.476634 1.812856 0.516430
v -2.476634 1.024321 0.516431
v -2.474620 1.028382 0.514421
v -2.474620 1.808796 0.514421
v -2.474597 1.032764 0.511161
v -2.474620 1.028382 0.514421
v -2.474624 1.024321 0.512442
v -2.474593 1.030104 0.508140
v -2.474597 1.804414 -0.718989
v -2.474620 1.808796 -0.722249
v -2.474624 1.812856 -0.720270
v -2.474593 1.807073 -0.715968
v -2.474624 1.812856 0.512442
v -2.474624 1.812856 -0.720270
v -2.476634 1.814856 -0.722048
v -2.476634 1.814856 0.514421
v -2.474593 1.030104 -0.715968
v -2.474624 1.024321 -0.720270
v -2.474620 1.028381 -0.722249
v -2.474597 1.032764 -0.718989
v -2.476634 1.024321 -0.724258
v -2.476634 1.812856 -0.724258
v -2.474620 1.808796 -0.722249
v -2.474620 1.028381 -0.722249
v -2.476634 1.022321 0.514421
v -2.476634 1.022321 -0.722249
v -2.474624 1.024321 -0.720270
v -2.474624 1.024321 0.512442
v -2.476634 1.024321 0.516431
v -2.481100 1.024321 0.516431
v -2.481100 1.022321 0.514421
v -2.476634 1.022321 0.514421
v -2.481100 1.022321 -0.722249
v -2.481100 1.022321 0.514421
v -2.483100 1.024321 0.514413
v -2.483100 1.024321 -0.722450
v -2.476634 1.022321 -0.722249
v -2.481100 1.022321 -0.722249
v -2.481100 1.024321 -0.724258
v -2.476634 1.024321 -0.724258
v -2.481100 1.812856 -0.724258
v -2.481100 1.024321 -0.724258
v -2.483100 1.024321 -0.722450
v -2.483100 1.816856 -0.723254
v -2.476634 1.812856 -0.724258
v -2.481100 1.812856 -0.724258
v -2.483100 1.816856 -0.723254
v -2.476634 1.814856 -0.722048
v -2.476634 1.814856 0.514421
v -2.482914 1.814856 0.514421
v -2.481100 1.812856 0.516430
v -2.476634 1.812856 0.516430
v -2.481100 1.024321 0.516431
v -2.481100 1.812856 0.516430
v -2.482914 1.814856 0.514421
v -2.483100 1.024321 0.514413
v -2.474597 1.804414 -0.718989
v -2.474597 1.032764 -0.718989
v -2.474620 1.028381 -0.722249
v -2.474620 1.808796 -0.722249
vn 1.000000 0.005300 -0.000000
vn 1.000000 0.005300 -0.000000
vn 1.000000 0.005300 -0.000000
vn 1.000000 0.005300 -0.000000
vn 0.154900 0.987900 0.000800
vn 0.154900 0.987900 0.000800
vn 0.154900 0.987900 0.000800
vn 0.154900 0.987900 0.000800
vn 1.000000 -0.005300 -0.000000
vn 1.000000 -0.005300 -0.000000
vn 1.000000 -0.005300 -0.000000
vn 1.000000 -0.005300 -0.000000
vn 1.000000 -0.000000 0.000000
vn 1.000000 -0.000000 0.000000
vn 1.000000 -0.000000 0.000000
vn 1.000000 -0.000000 0.000000
vn 1.000000 -0.000000 0.007100
vn 1.000000 -0.000000 0.007100
vn 1.000000 -0.000000 0.007100
vn 1.000000 -0.000000 0.007100
vn 0.000000 0.000000 -1.000000
vn 0.000000 0.000000 -1.000000
vn 0.000000 0.000000 -1.000000
vn 0.000000 0.000000 -1.000000
vn -1.000000 0.000100 0.000100
vn -1.000000 0.000100 0.000100
vn -1.000000 0.000100 0.000100
vn -1.000000 0.000100 0.000100
vn 0.000000 0.000000 1.000000
vn 0.000000 0.000000 1.000000
vn 0.000000 0.000000 1.000000
vn 0.000000 0.000000 1.000000
vn 0.000000 -1.000000 0.000000
vn 0.000000 -1.000000 0.000000
vn 0.000000 -1.000000 0.000000
vn 0.000000 -1.000000 0.000000
vn -1.000000 -0.001700 0.000100
vn -1.000000 -0.001700 0.000100
vn -1.000000 -0.001700 0.000100
vn -1.000000 -0.001700 0.000100
vn 1.000000 0.002000 -0.002900
vn 1.000000 0.002000 -0.002900
vn 1.000000 0.002000 -0.002900
vn 1.000000 -0.002000 -0.002900
vn 1.000000 -0.002000 -0.002900
vn 1.000000 -0.002000 -0.002900
vn 1.000000 -0.001900 0.002900
vn 1.000000 -0.001900 0.002900
vn 1.000000 -0.001900 0.002900
vn 1.000000 0.001900 0.002900
vn 1.000000 0.001900 0.002900
vn 1.000000 0.001900 0.002900
vn 0.856000 0.284600 0.431600
vn 0.856000 0.284600 0.431600
vn 0.856000 0.284600 0.431600
vn 0.856000 0.284600 0.431600
vn 0.856000 -0.284500 0.431600
vn 0.856000 -0.284500 0.431600
vn 0.856000 -0.284500 0.431600
vn 0.856000 -0.284500 0.431600
vn 0.856000 -0.284500 -0.431600
vn 0.856000 -0.284500 -0.431600
vn 0.856000 -0.284500 -0.431600
vn 0.856000 -0.284500 -0.431600
vn 0.852500 0.297600 -0.429800
vn 0.852500 0.297600 -0.429800
vn 0.852500 0.297600 -0.429800
vn 0.852500 0.297600 -0.429800
vn -0.537700 -0.597500 -0.594800
vn -0.537700 -0.597500 -0.594800
vn -0.537700 -0.597500 -0.594800
vn -0.579900 -0.577400 0.574700
vn -0.579900 -0.577400 0.574700
vn -0.579900 -0.577400 0.574700
vn 1.000000 -0.002700 -0.000000
vn 1.000000 -0.002700 -0.000000
vn 1.000000 -0.002700 -0.000000
vn 1.000000 -0.002700 -0.000000
vn 1.000000 0.000000 -0.003600
vn 1.000000 0.000000 -0.003600
vn 1.000000 0.000000 -0.003600
vn 1.000000 0.000000 -0.003600
vn 1.000000 0.002800 -0.000000
vn 1.000000 0.002800 -0.000000
vn 1.000000 0.002800 -0.000000
vn 1.000000 0.002800 -0.000000
vn 1.000000 -0.000000 0.003600
vn 1.000000 -0.000000 0.003600
vn 1.000000 -0.000000 0.003600
vn 1.000000 -0.000000 0.003600
vn 1.000000 0.002600 0.003600
vn 1.000000 0.002600 0.003600
vn 1.000000 0.002600 0.003600
vn 1.000000 0.002600 0.003600
vn 0.706200 0.000000 0.708100
vn 0.706200 0.000000 0.708100
vn 0.706200 0.000000 0.708100
vn 0.706200 0.000000 0.708100
vn 1.000000 -0.002700 0.003600
vn 1.000000 -0.002700 0.003600
vn 1.000000 -0.002700 0.003600
vn 1.000000 -0.002700 0.003600
vn 1.000000 0.002600 -0.003600
vn 1.000000 0.002600 -0.003600
vn 1.000000 0.002600 -0.003600
vn 1.000000 0.002600 -0.003600
vn 0.705200 0.709000 -0.000000
vn 0.705200 0.709000 -0.000000
vn 0.705200 0.709000 -0.000000
vn 0.705200 0.709000 -0.000000
vn 1.000000 -0.002600 -0.003600
vn 1.000000 -0.002600 -0.003600
vn 1.000000 -0.002600 -0.003600
vn 1.000000 -0.002600 -0.003600
vn 0.706200 0.000000 -0.708000
vn 0.706200 0.000000 -0.708000
vn 0.706200 0.000000 -0.708000
vn 0.706200 0.000000 -0.708000
vn 0.705200 -0.709000 0.000000
vn 0.705200 -0.709000 0.000000
vn 0.705200 -0.709000 0.000000
vn 0.705200 -0.709000 0.000000
vn 0.000000 -0.708700 0.705500
vn 0.000000 -0.708700 0.705500
vn 0.000000 -0.708700 0.705500
vn 0.000000 -0.708700 0.705500
vn -0.707100 -0.707100 0.000000
vn -0.707100 -0.707100 0.000000
vn -0.707100 -0.707100 0.000000
vn -0.707100 -0.707100 0.000000
vn 0.000000 -0.708700 -0.705500
vn 0.000000 -0.708700 -0.705500
vn 0.000000 -0.708700 -0.705500
vn 0.000000 -0.708700 -0.705500
vn -0.575400 -0.000400 -0.817800
vn -0.575400 -0.000400 -0.817800
vn -0.575400 -0.000400 -0.817800
vn -0.575400 -0.000400 -0.817800
vn 0.186100 0.511500 -0.838900
vn 0.186100 0.511500 -0.838900
vn 0.186100 0.511500 -0.838900
vn 0.186100 0.511500 -0.838900
vn 0.000000 0.708700 0.705500
vn 0.000000 0.708700 0.705500
vn 0.000000 0.708700 0.705500
vn 0.000000 0.708700 0.705500
vn -0.726000 0.000100 0.687700
vn -0.726000 0.000100 0.687700
vn -0.726000 0.000100 0.687700
vn -0.726000 0.000100 0.687700
vn 1.000000 0.000000 -0.007200
vn 1.000000 0.000000 -0.007200
vn 1.000000 0.000000 -0.007200
vn 1.000000 0.000000 -0.007200
vt 0.000000 0.000000
vt 0.000000 0.000000
vt 0.000000 0.000000
vt 0.000000 0.000000
vt 0.000000 0.000000
vt 0.000000 0.000000
vt 0.000000 0.000000
vt 0.000000 0.000000
vt 0.000000 0.000000
vt 0.000000 0.000000
vt 0.000000 0.000000
vt 0.000000 0.000000
vt 0.000000 0.000000
vt 0.000000 0.000000
vt 0.000000 0.000000
vt 0.000000 0.000000
vt 0.000000 0.000000
vt 0.000000 0.000000
vt 0.000000 0.000000
vt 0.000000 0.000000
vt 0.000000 0.000000
vt 0.000000 0.000000
vt 0.000000 0.000000
vt 0.000000 0.000000
vt 0.000000 0.000000
vt 0.000000 0.000000
vt 0.000000 0.000000
vt 0.000000 0.000000
vt 0.000000 0.000000
vt 0.000000 0.000000
vt 0.000000 0.000000
vt 0.000000 0.000000
vt 0.000000 0.000000
vt 0.000000 0.000000
vt 0.000000 0.000000
vt 0.000000 0.000000
vt 0.000000 0.000000
vt 0.000000 0.000000
vt 0.000000 0.000000
vt 0.000000 0.000000
vt 0.000000 0.000000
vt 0.000000 0.000000
vt 0.000000 0.000000
vt 0.000000 0.000000
vt 0.000000 0.000000
vt 0.000000 0.000000
vt 0.000000 0.000000
vt 0.000000 0.000000
vt 0.000000 0.000000
vt 0.000000 0.000000
vt 0.000000 0.000000
vt 0.000000 0.000000
vt 0.000000 0.000000
vt 0.000000 0.000000
vt 0.000000 0.000000
vt 0.000000 0.000000
vt 0.000000 0.000000
vt 0.000000 0.000000
vt 0.000000 0.000000
vt 0.000000 0.000000
vt 0.000000 0.000000
vt 0.000000 0.000000
vt 0.000000 0.000000
vt 0.000000 0.000000
vt 0.000000 0.000000
vt 0.000000 0.000000
vt 0.000000 0.000000
vt 0.000000 0.000000
vt 0.000000 0.000000
vt 0.000000 0.000000
vt 0.000000 0.000000
vt 0.000000 0.000000
vt 0.000000 0.000000
vt 0.000000 0.000000
vt 0.000000 0.000000
vt 0.000000 0.000000
vt 0.000000 0.000000
vt 0.000000 0.000000
vt 0.000000 0.000000
vt 0.000000 0.000000
vt 0.000000 0.000000
vt 0.000000 0.000000
vt 0.000000 0.000000
vt 0.000000 0.000000
vt 0.000000 0.000000
vt 0.000000 0.000000
vt 0.000000 0.000000
vt 0.000000 0.000000
vt 0.000000 0.000000
vt 0.000000 0.000000
vt 0.000000 0.000000
vt 0.000000 0.000000
vt 0.000000 0.000000
vt 0.000000 0.000000
vt 0.000000 0.000000
vt 0.000000 0.000000
vt 0.000000 0.000000
vt 0.000000 0.000000
vt 0.000000 0.000000
vt 0.000000 0.000000
vt 0.000000 0.000000
vt 0.000000 0.000000
vt 0.000000 0.000000
vt 0.000000 0.000000
vt 0.000000 0.000000
vt 0.000000 0.000000
vt 0.000000 0.000000
vt 0.000000 0.000000
vt 0.000000 0.000000
vt 0.000000 0.000000
vt 0.000000 0.000000
vt 0.000000 0.000000
vt 0.000000 0.000000
vt 0.000000 0.000000
vt 0.000000 0.000000
vt 0.000000 0.000000
vt 0.000000 0.000000
vt 0.000000 0.000000
vt 0.000000 0.000000
vt 0.000000 0.000000
vt 0.000000 0.000000
vt 0.000000 0.000000
vt 0.000000 0.000000
vt 0.000000 0.000000
vt 0.000000 0.000000
vt 0.000000 0.000000
vt 0.000000 0.000000
vt 0.000000 0.000000
vt 0.000000 0.000000
vt 0.000000 0.000000
vt 0.000000 0.000000
vt 0.000000 0.000000
vt 0.000000 0.000000
vt 0.000000 0.000000
vt 0.000000 0.000000
vt 0.000000 0.000000
vt 0.000000 0.000000
vt 0.000000 0.000000
vt 0.000000 0.000000
vt 0.000000 0.000000
vt 0.000000 0.000000
vt 0.000000 0.000000
vt 0.000000 0.000000
vt 0.000000 0.000000
vt 0.000000 0.000000
vt 0.000000 0.000000
vt 0.000000 0.000000
vt 0.000000 0.000000
vt 0.000000 0.000000
vt 0.000000 0.000000
vt 0.000000 0.000000
vt 0.000000 0.000000
vt 0.000000 0.000000
vt 0.000000 0.000000
f 1/1/1 2/2/2 3/3/3
f 1/1/1 3/3/3 4/4/4
f 5/5/5 6/6/6 7/7/7
f 5/5/5 7/7/7 8/8/8
f 9/9/9 10/10/10 11/11/11
f 9/9/9 11/11/11 12/12/12
f 13/13/13 14/14/14 15/15/15
f 13/13/13 15/15/15 16/16/16
f 17/17/17 18/18/18 19/19/19
f 17/17/17 19/19/19 20/20/20
f 21/21/21 22/22/22 23/23/23
f 21/21/21 23/23/23 24/24/24
f 25/25/25 26/26/26 27/27/27
f 25/25/25 27/27/27 28/28/28
f 29/29/29 30/30/30 31/31/31
f 29/29/29 31/31/31 32/32/32
f 33/33/33 34/34/34 35/35/35
f 33/33/33 35/35/35 36/36/36
f 37/37/37 38/38/38 39/39/39
f 37/37/37 39/39/39 40/40/40
f 41/41/41 42/42/42 43/43/43
f 44/44/44 45/45/45 46/46/46
f 47/47/47 48/48/48 49/49/49
f 50/50/50 51/51/51 52/52/52
f 53/53/53 54/54/54 55/55/55
f 53/53/53 55/55/55 56/56/56
f 57/57/57 58/58/58 59/59/59
f 57/57/57 59/59/59 60/60/60
f 61/61/61 62/62/62 63/63/63
f 61/61/61 63/63/63 64/64/64
f 65/65/65 66/66/66 67/67/67
f 65/65/65 67/67/67 68/68/68
f 69/69/69 70/70/70 71/71/71
f 72/72/72 73/73/73 74/74/74
f 75/75/75 76/76/76 77/77/77
f 75/75/75 77/77/77 78/78/78
f 79/79/79 80/80/80 81/81/81
f 79/79/79 81/81/81 82/82/82
f 83/83/83 84/84/84 85/85/85
f 83/83/83 85/85/85 86/86/86
f 87/87/87 88/88/88 89/89/89
f 87/87/87 89/89/89 90/90/90
f 91/91/91 92/92/92 93/93/93
f 91/91/91 93/93/93 94/94/94
f 95/95/95 96/96/96 97/97/97
f 95/95/95 97/97/97 98/98/98
f 99/99/99 100/100/100 101/101/101
f 99/99/99 101/101/101 102/102/102
f 103/103/103 104/104/104 105/105/105
f 103/103/103 105/105/105 106/106/106
f 107/107/107 108/108/108 109/109/109
f 107/107/107 109/109/109 110/110/110
f 111/111/111 112/112/112 113/113/113
f 111/111/111 113/113/113 114/114/114
f 115/115/115 116/116/116 117/117/117
f 115/115/115 117/117/117 118/118/118
f 119/119/119 120/120/120 121/121/121
f 119/119/119 121/121/121 122/122/122
f 123/123/123 124/124/124 125/125/125
f 123/123/123 125/125/125 126/126/126
f 127/127/127 128/128/128 129/129/129
f 127/127/127 129/129/129 130/130/130
f 131/131/131 132/132/132 133/133/133
f 131/131/131 133/133/133 134/134/134
f 135/135/135 136/136/136 137/137/137
f 135/135/135 137/137/137 138/138/138
f 139/139/139 140/140/140 141/141/141
f 139/139/139 141/141/141 142/142/142
f 143/143/143 144/144/144 145/145/145
f 143/143/143 145/145/145 146/146/146
f 147/147/147 148/148/148 149/149/149
f 147/147/147 149/149/149 150/150/150
f 151/151/151 152/152/152 153/153/153
f 151/151/151 153/153/153 154/154/154
