v 0.820232 0.979990 -1.779230
v 0.820232 0.979990 -1.743828
v 0.832616 0.979990 -1.743828
v 0.832616 0.979990 -1.779230
v 0.819286 0.979990 -1.778284
v 0.819286 0.979990 -1.744774
v 0.820232 0.979990 -1.743828
v 0.820232 0.979990 -1.779230
v 0.837176 1.030016 -1.779230
v 0.832616 0.979990 -1.779230
v 0.832616 0.979990 -1.743828
v 0.837176 1.030016 -1.745898
v 0.842652 1.040289 -1.779230
v 0.837176 1.030016 -1.779230
v 0.837176 1.030016 -1.745898
v 0.838018 1.040289 -1.745898
v 0.838018 1.040289 -1.745898
v 0.838018 1.040717 -1.746844
v 0.842652 1.040717 -1.778284
v 0.842652 1.040289 -1.779230
v 0.820232 0.979990 -2.144433
v 0.832616 0.979990 -2.144433
v 0.832616 0.979990 -2.179834
v 0.820232 0.979990 -2.179834
v 0.819286 0.979990 -2.145378
v 0.820232 0.979990 -2.144433
v 0.820232 0.979990 -2.179834
v 0.819286 0.979990 -2.178889
v 0.837176 1.030016 -2.144433
v 0.837176 1.030016 -2.177764
v 0.832616 0.979990 -2.179834
v 0.832616 0.979990 -2.144433
v 0.842651 1.040289 -2.144433
v 0.838018 1.040289 -2.177764
v 0.837176 1.030016 -2.177764
v 0.837176 1.030016 -2.144433
v 0.838018 1.040289 -2.177764
v 0.842651 1.040289 -2.144433
v 0.842651 1.040717 -2.145378
v 0.838018 1.040717 -2.176819
vn -0.000000 1.000000 0.000000
vn -0.000000 1.000000 0.000000
vn -0.000000 1.000000 0.000000
vn -0.000000 1.000000 0.000000
vn -0.000000 1.000000 0.000000
vn -0.000000 1.000000 0.000000
vn -0.000000 1.000000 0.000000
vn -0.000000 1.000000 0.000000
vn -0.995900 0.090800 0.000000
vn -0.995900 0.090800 0.000000
vn -0.995900 0.090800 0.000000
vn -0.995900 0.090800 0.000000
vn -0.953700 0.293300 -0.066300
vn -0.953700 0.293300 -0.066300
vn -0.953700 0.293300 -0.066300
vn -0.953700 0.293300 -0.066300
vn -0.989900 0.000000 -0.141600
vn -0.989900 0.000000 -0.141600
vn -0.989900 0.000000 -0.141600
vn -0.989900 0.000000 -0.141600
vn -0.000000 1.000000 0.000000
vn -0.000000 1.000000 0.000000
vn -0.000000 1.000000 0.000000
vn -0.000000 1.000000 0.000000
vn -0.000000 1.000000 0.000000
vn -0.000000 1.000000 0.000000
vn -0.000000 1.000000 0.000000
vn -0.000000 1.000000 0.000000
vn -0.995900 0.090800 0.000000
vn -0.995900 0.090800 0.000000
vn -0.995900 0.090800 0.000000
vn -0.995900 0.090800 0.000000
vn -0.953700 0.293300 0.066300
vn -0.953700 0.293300 0.066300
vn -0.953700 0.293300 0.066300
vn -0.953700 0.293300 0.066300
vn -0.989900 0.000000 0.141600
vn -0.989900 0.000000 0.141600
vn -0.989900 0.000000 0.141600
vn -0.989900 0.000000 0.141600
vt 0.000000 0.000000
vt 0.000000 1.000000
vt 1.000000 1.000000
vt 1.000000 0.000000
vt 0.000000 0.000000
vt 0.000000 1.000000
vt 1.000000 1.000000
vt 1.000000 0.000000
vt 0.000000 0.000000
vt 1.000000 0.000000
vt 1.000000 1.000000
vt 0.000000 1.000000
vt 0.000000 0.000000
vt 1.000000 0.000000
vt 1.000000 1.000000
vt 0.000000 1.000000
vt 0.000000 0.000000
vt 1.000000 0.000000
vt 1.000000 1.000000
vt 0.000000 1.000000
vt 0.000000 0.000000
vt 1.000000 0.000000
vt 1.000000 1.000000
vt 0.000000 1.000000
vt 0.000000 0.000000
vt 1.000000 0.000000
vt 1.000000 1.000000
vt 0.000000 1.000000
vt 0.000000 0.000000
vt 0.000000 1.000000
vt 1.000000 1.000000
vt 1.000000 0.000000
vt 0.000000 0.000000
vt 0.000000 1.000000
vt 1.000000 1.000000
vt 1.000000 0.000000
vt 0.000000 0.000000
vt 0.000000 1.000000
vt 1.000000 1.000000
vt 1.000000 0.000000
f 1/1/1 2/2/2 3/3/3
f 1/1/1 3/3/3 4/4/4
f 5/5/5 6/6/6 7/7/7
f 5/5/5 7/7/7 8/8/8
f 9/9/9 10/10/10 11/11/11
f 9/9/9 11/11/11 12/12/12
f 13/13/13 14/14/14 15/15/15
f 13/13/13 15/15/15 16/16/16
f 17/17/17 18/18/18 19/19/19
f 17/17/17 19/19/19 20/20/20
f 21/21/21 22/22/22 23/23/23
f 21/21/21 23/23/23 24/24/24
f 25/25/25 26/26/26 27/27/27
f 25/25/25 27/27/27 28/28/28
f 29/29/29 30/30/30 31/31/31
f 29/29/29 31/31/31 32/32/32
f 33/33/33 34/34/34 35/35/35
f 33/33/33 35/35/35 36/36/36
f 37/37/37 38/38/38 39/39/39
f 37/37/37 39/39/39 40/40/40
