v 0.038652 2.701405 -2.743673
v 0.075204 2.701405 -2.743673
v 0.075204 2.701405 -2.744485
v 0.038652 2.701405 -2.744485
v 0.075204 2.678571 -2.743869
v 0.038652 2.678571 -2.743869
v 0.038652 2.678180 -2.744485
v 0.075204 2.678180 -2.744485
v 0.075204 2.679589 -2.743673
v 0.075204 2.701405 -2.743673
v 0.038652 2.701405 -2.743673
v 0.038652 2.679589 -2.743673
v 0.038652 2.679589 -2.743673
v 0.038652 2.678571 -2.743869
v 0.075204 2.678571 -2.743869
v 0.075204 2.679589 -2.743673
v 0.038652 2.678571 -2.743869
v 0.038652 2.679589 -2.743673
v 0.038652 2.679589 -2.744485
v 0.038652 2.678180 -2.744485
v 0.038652 2.701405 -2.743673
v 0.038652 2.701405 -2.744485
v 0.075204 2.701405 -2.743673
v 0.075204 2.679589 -2.743673
v 0.075204 2.679589 -2.744485
v 0.075204 2.701405 -2.744485
v 0.075204 2.678571 -2.743869
v 0.075204 2.678180 -2.744485
v 0.038652 2.679589 -2.744485
v 0.038652 2.701405 -2.744485
v 0.075204 2.701405 -2.744485
v 0.075204 2.679589 -2.744485
v 0.038652 2.679589 -2.744485
v 0.075204 2.679589 -2.744485
v 0.075204 2.679589 -2.748137
v 0.038652 2.679589 -2.748137
v 0.075204 2.678180 -2.748137
v 0.075204 2.679589 -2.748137
v 0.038652 2.679589 -2.748137
v 0.038652 2.678180 -2.748137
v 0.075204 2.678180 -2.744485
v 0.038652 2.678180 -2.744485
v 0.038652 2.678180 -2.748137
v 0.075204 2.678180 -2.748137
v 0.038652 2.678180 -2.748137
v 0.038652 2.679589 -2.748137
v 0.075204 2.679589 -2.748137
v 0.075204 2.678180 -2.748137
vn 0.000000 1.000000 0.000000
vn 0.000000 1.000000 0.000000
vn 0.000000 1.000000 0.000000
vn 0.000000 1.000000 0.000000
vn 0.000000 -0.844100 0.536200
vn 0.000000 -0.844100 0.536200
vn 0.000000 -0.844100 0.536200
vn 0.000000 -0.844100 0.536200
vn 0.000000 0.000000 1.000000
vn 0.000000 0.000000 1.000000
vn 0.000000 0.000000 1.000000
vn 0.000000 0.000000 1.000000
vn 0.000000 -0.188900 0.982000
vn 0.000000 -0.188900 0.982000
vn 0.000000 -0.188900 0.982000
vn 0.000000 -0.188900 0.982000
vn -1.000000 0.000000 -0.000000
vn -1.000000 0.000000 -0.000000
vn -1.000000 0.000000 -0.000000
vn -1.000000 0.000000 -0.000000
vn -1.000000 0.000000 -0.000000
vn -1.000000 0.000000 -0.000000
vn 1.000000 0.000000 0.000000
vn 1.000000 0.000000 0.000000
vn 1.000000 0.000000 0.000000
vn 1.000000 0.000000 0.000000
vn 1.000000 0.000000 0.000000
vn 1.000000 0.000000 0.000000
vn 0.000000 0.000000 -1.000000
vn 0.000000 0.000000 -1.000000
vn 0.000000 0.000000 -1.000000
vn 0.000000 0.000000 -1.000000
vn 0.000000 1.000000 0.000000
vn 0.000000 1.000000 0.000000
vn 0.000000 1.000000 0.000000
vn 0.000000 1.000000 0.000000
vn 1.000000 0.000000 0.000000
vn 1.000000 0.000000 0.000000
vn -1.000000 0.000000 -0.000000
vn -1.000000 0.000000 -0.000000
vn 0.000000 -1.000000 0.000000
vn 0.000000 -1.000000 0.000000
vn 0.000000 -1.000000 0.000000
vn 0.000000 -1.000000 0.000000
vn 0.000000 0.000000 -1.000000
vn 0.000000 0.000000 -1.000000
vn 0.000000 0.000000 -1.000000
vn 0.000000 0.000000 -1.000000
vt 0.000000 0.000000
vt 0.000000 0.000000
vt 0.000000 0.000000
vt 0.000000 0.000000
vt 0.000000 0.000000
vt 0.000000 0.000000
vt 0.000000 0.000000
vt 0.000000 0.000000
vt 0.000000 0.000000
vt 0.000000 0.000000
vt 0.000000 0.000000
vt 0.000000 0.000000
vt 0.000000 0.000000
vt 0.000000 0.000000
vt 0.000000 0.000000
vt 0.000000 0.000000
vt 0.000000 0.000000
vt 0.000000 0.000000
vt 0.000000 0.000000
vt 0.000000 0.000000
vt 0.000000 0.000000
vt 0.000000 0.000000
vt 0.000000 0.000000
vt 0.000000 0.000000
vt 0.000000 0.000000
vt 0.000000 0.000000
vt 0.000000 0.000000
vt 0.000000 0.000000
vt 0.000000 0.000000
vt 0.000000 0.000000
vt 0.000000 0.000000
vt 0.000000 0.000000
vt 0.000000 0.000000
vt 0.000000 0.000000
vt 0.000000 0.000000
vt 0.000000 0.000000
vt 0.000000 0.000000
vt 0.000000 0.000000
vt 0.000000 0.000000
vt 0.000000 0.000000
vt 0.000000 0.000000
vt 0.000000 0.000000
vt 0.000000 0.000000
vt 0.000000 0.000000
vt 0.000000 0.000000
vt 0.000000 0.000000
vt 0.000000 0.000000
vt 0.000000 0.000000
f 1/1/1 2/2/2 3/3/3
f 1/1/1 3/3/3 4/4/4
f 5/5/5 6/6/6 7/7/7
f 5/5/5 7/7/7 8/8/8
f 9/9/9 10/10/10 11/11/11
f 9/9/9 11/11/11 12/12/12
f 13/13/13 14/14/14 15/15/15
f 13/13/13 15/15/15 16/16/16
f 17/17/17 18/18/18 19/19/19
f 17/17/17 19/19/19 20/20/20
f 18/18/18 21/21/21 22/22/22
f 18/18/18 22/22/22 19/19/19
f 23/23/23 24/24/24 25/25/25
f 23/23/23 25/25/25 26/26/26
f 24/24/24 27/27/27 28/28/28
f 24/24/24 28/28/28 25/25/25
f 29/29/29 30/30/30 31/31/31
f 29/29/29 31/31/31 32/32/32
f 33/33/33 34/34/34 35/35/35
f 33/33/33 35/35/35 36/36/36
f 25/25/25 28/28/28 37/37/37
f 25/25/25 37/37/37 38/38/38
f 20/20/20 19/19/19 39/39/39
f 20/20/20 39/39/39 40/40/40
f 41/41/41 42/42/42 43/43/43
f 41/41/41 43/43/43 44/44/44
f 45/45/45 46/46/46 47/47/47
f 45/45/45 47/47/47 48/48/48
