v 3.429754 0.196303 -2.469231
v 3.429754 0.207049 -2.469231
v 3.429754 0.207049 -2.461122
v 3.429754 0.196303 -2.457587
v 3.429754 0.192626 -2.457587
v 3.429754 0.192626 -2.469231
v 3.429754 0.190580 -2.459076
v 3.429754 0.190580 -2.469231
v 3.429754 0.188534 -2.459076
v 3.429754 0.188534 -2.469231
v 3.429754 0.186488 -2.457587
v 3.429754 0.186488 -2.469231
v 3.429754 0.183088 -2.457587
v 3.429754 0.183088 -2.469231
v 3.429754 0.178224 -2.459076
v 3.429754 0.178224 -2.469231
v 3.429754 0.173361 -2.457587
v 3.429754 0.173361 -2.469231
v 3.429754 0.207049 -2.461122
v 3.429754 0.207049 -2.469231
v 3.429754 0.208351 -2.468673
v 3.429754 0.208351 -2.462611
v 3.429754 -0.014290 -2.457587
v 3.429754 -0.014290 -2.469231
v 3.429754 -0.014290 -2.457587
v 3.429754 -0.015065 -2.458020
v 3.429754 -0.015065 -2.468798
v 3.429754 -0.014290 -2.469231
v -1.786394 0.207049 -2.461122
v -1.694827 0.207049 -2.469231
v -1.786394 0.196303 -2.469231
v -1.786394 0.196303 -2.457587
v -1.786394 0.192627 -2.469231
v -1.786394 0.192627 -2.457587
v -1.786394 0.196303 -2.457587
v -1.786394 0.196303 -2.469231
v -1.694827 0.190581 -2.469231
v -1.786394 0.190581 -2.459076
v -1.786394 0.192627 -2.457587
v -1.786394 0.192627 -2.469231
v -1.694827 0.188535 -2.469231
v -1.694827 0.188535 -2.459076
v -1.786394 0.190581 -2.459076
v -1.694827 0.190581 -2.469231
v -1.694827 0.186489 -2.469231
v -1.786394 0.186489 -2.457587
v -1.694827 0.188535 -2.459076
v -1.694827 0.188535 -2.469231
v -1.694827 0.183088 -2.469231
v -1.786394 0.183088 -2.457587
v -1.786394 0.186489 -2.457587
v -1.694827 0.186489 -2.469231
v -1.694827 0.178225 -2.469231
v -1.786394 0.178225 -2.459076
v -1.786394 0.183088 -2.457587
v -1.694827 0.183088 -2.469231
v -1.786394 0.173362 -2.469231
v -1.786394 0.173362 -2.457587
v -1.786394 0.178225 -2.459076
v -1.694827 0.178225 -2.469231
v -1.786394 0.208351 -2.468673
v -1.694827 0.207049 -2.469231
v -1.786394 0.207049 -2.461122
v -1.786394 0.208351 -2.462611
v -1.786394 -0.014290 -2.469231
v -1.786394 -0.014290 -2.457587
v -1.786394 0.173362 -2.457587
v -1.786394 0.173362 -2.469231
v -1.786394 -0.015065 -2.468798
v -1.694827 -0.015065 -2.458020
v -1.786394 -0.014290 -2.457587
v -1.786394 -0.014290 -2.469231
v -0.768227 0.173362 -2.457587
v -1.786394 0.173362 -2.457587
v -1.786394 -0.014290 -2.457587
v -0.768227 -0.014290 -2.457587
v -0.768227 -0.014290 -2.457587
v -1.786394 -0.014290 -2.457587
v -1.694827 -0.015065 -2.458020
v -0.768227 -0.015065 -2.458020
v -0.768227 -0.014290 -2.469231
v -1.786394 -0.014290 -2.469231
v -1.786394 0.173362 -2.469231
v -0.768227 0.173362 -2.469231
v -0.768227 -0.015065 -2.468798
v -1.786394 -0.015065 -2.468798
v -1.786394 -0.014290 -2.469231
v -0.768227 -0.014290 -2.469231
v -0.768227 0.208351 -2.462611
v -1.786394 0.208351 -2.462611
v -1.786394 0.207049 -2.461122
v -0.768227 0.207049 -2.461122
v -0.768227 0.208351 -2.468673
v -1.786394 0.208351 -2.468673
v -1.786394 0.208351 -2.462611
v -0.768227 0.208351 -2.462611
v -0.768227 0.207049 -2.469231
v -1.694827 0.207049 -2.469231
v -1.786394 0.208351 -2.468673
v -0.768227 0.208351 -2.468673
v -0.768227 0.183088 -2.457587
v -1.786394 0.183088 -2.457587
v -1.786394 0.178225 -2.459076
v -0.768227 0.178225 -2.459076
v -0.768227 0.178225 -2.459076
v -1.786394 0.178225 -2.459076
v -1.786394 0.173362 -2.457587
v -0.768227 0.173362 -2.457587
v -0.768227 0.178225 -2.469231
v -1.694827 0.178225 -2.469231
v -1.694827 0.183088 -2.469231
v -0.768227 0.183088 -2.469231
v -0.768227 0.186489 -2.457587
v -1.786394 0.186489 -2.457587
v -1.786394 0.183088 -2.457587
v -0.768227 0.183088 -2.457587
v -1.694827 0.186489 -2.469231
v -0.768227 0.186489 -2.469231
v -0.768227 0.192627 -2.457587
v -1.786394 0.192627 -2.457587
v -1.786394 0.190581 -2.459076
v -0.768227 0.190581 -2.459076
v -0.768227 0.190581 -2.459076
v -1.786394 0.190581 -2.459076
v -1.694827 0.188535 -2.459076
v -0.768227 0.188535 -2.459076
v -0.768227 0.188535 -2.459076
v -1.694827 0.188535 -2.459076
v -1.786394 0.186489 -2.457587
v -0.768227 0.186489 -2.457587
v -0.768227 0.190581 -2.469231
v -1.694827 0.190581 -2.469231
v -1.786394 0.192627 -2.469231
v -0.768227 0.192627 -2.469231
v -0.768227 0.188535 -2.469231
v -1.694827 0.188535 -2.469231
v -0.768227 0.196303 -2.457587
v -1.786394 0.196303 -2.457587
v -1.786394 0.192627 -2.457587
v -0.768227 0.192627 -2.457587
v -1.786394 0.196303 -2.469231
v -0.768227 0.196303 -2.469231
v -0.768227 0.207049 -2.461122
v -1.786394 0.207049 -2.461122
v -1.786394 0.196303 -2.457587
v -0.768227 0.196303 -2.457587
v -1.694827 0.207049 -2.469231
v -0.768227 0.207049 -2.469231
v -0.768227 -0.015065 -2.458020
v -1.694827 -0.015065 -2.458020
v -1.786394 -0.015065 -2.468798
v -0.768227 -0.015065 -2.468798
v 3.429754 0.173361 -2.457587
v 0.884238 0.173361 -2.457587
v 0.884238 -0.014290 -2.457587
v 3.429754 -0.014290 -2.457587
v 3.429754 -0.014290 -2.457587
v 0.884238 -0.014290 -2.457587
v 0.884238 -0.015065 -2.458020
v 3.429754 -0.015065 -2.458020
v 3.429754 -0.014290 -2.469231
v 0.884238 -0.014290 -2.469231
v 0.884238 0.173361 -2.469231
v 3.429754 0.173361 -2.469231
v 3.429754 -0.015065 -2.468798
v 0.884238 -0.015065 -2.468798
v 0.884238 -0.014290 -2.469231
v 3.429754 -0.014290 -2.469231
v 3.429754 0.208351 -2.462611
v 0.884238 0.208351 -2.462611
v 0.884238 0.207049 -2.461122
v 3.429754 0.207049 -2.461122
v 3.429754 0.208351 -2.468673
v 0.884238 0.208351 -2.468673
v 0.884238 0.208351 -2.462611
v 3.429754 0.208351 -2.462611
v 3.429754 0.207049 -2.469231
v 0.884238 0.207049 -2.469231
v 0.884238 0.208351 -2.468673
v 3.429754 0.208351 -2.468673
v 3.429754 0.183088 -2.457587
v 0.884238 0.183088 -2.457587
v 0.884238 0.178225 -2.459076
v 3.429754 0.178224 -2.459076
v 3.429754 0.178224 -2.459076
v 0.884238 0.178225 -2.459076
v 0.884238 0.173361 -2.457587
v 3.429754 0.173361 -2.457587
v 3.429754 0.178224 -2.469231
v 0.884238 0.178225 -2.469231
v 0.884238 0.183088 -2.469231
v 3.429754 0.183088 -2.469231
v 3.429754 0.186488 -2.457587
v 0.884238 0.186489 -2.457587
v 0.884238 0.183088 -2.457587
v 3.429754 0.183088 -2.457587
v 0.884238 0.186489 -2.469231
v 3.429754 0.186488 -2.469231
v 3.429754 0.192626 -2.457587
v 0.884238 0.192627 -2.457587
v 0.884238 0.190581 -2.459076
v 3.429754 0.190580 -2.459076
v 3.429754 0.190580 -2.459076
v 0.884238 0.190581 -2.459076
v 0.884238 0.188535 -2.459076
v 3.429754 0.188534 -2.459076
v 3.429754 0.188534 -2.459076
v 0.884238 0.188535 -2.459076
v 0.884238 0.186489 -2.457587
v 3.429754 0.186488 -2.457587
v 3.429754 0.190580 -2.469231
v 0.884238 0.190581 -2.469231
v 0.884238 0.192627 -2.469231
v 3.429754 0.192626 -2.469231
v 3.429754 0.188534 -2.469231
v 0.884238 0.188535 -2.469231
v 3.429754 0.196303 -2.457587
v 0.884238 0.196303 -2.457587
v 0.884238 0.192627 -2.457587
v 3.429754 0.192626 -2.457587
v 0.884238 0.196303 -2.469231
v 3.429754 0.196303 -2.469231
v 3.429754 0.207049 -2.461122
v 0.884238 0.207049 -2.461122
v 0.884238 0.196303 -2.457587
v 3.429754 0.196303 -2.457587
v 0.884238 0.207049 -2.469231
v 3.429754 0.207049 -2.469231
v 3.429754 -0.015065 -2.458020
v 0.884238 -0.015065 -2.458020
v 0.884238 -0.015065 -2.468798
v 3.429754 -0.015065 -2.468798
vn 1.000000 -0.000000 0.000000
vn 1.000000 -0.000000 0.000000
vn 1.000000 -0.000000 0.000000
vn 1.000000 -0.000000 0.000000
vn 1.000000 -0.000000 0.000000
vn 1.000000 -0.000000 0.000000
vn 1.000000 -0.000000 0.000000
vn 1.000000 -0.000000 0.000000
vn 1.000000 -0.000000 0.000000
vn 1.000000 -0.000000 0.000000
vn 1.000000 -0.000000 0.000000
vn 1.000000 -0.000000 0.000000
vn 1.000000 -0.000000 0.000000
vn 1.000000 -0.000000 0.000000
vn 1.000000 -0.000000 0.000000
vn 1.000000 -0.000000 0.000000
vn 1.000000 -0.000000 0.000000
vn 1.000000 -0.000000 0.000000
vn 1.000000 0.000200 0.000000
vn 1.000000 0.000200 0.000000
vn 1.000000 0.000200 0.000000
vn 1.000000 0.000200 0.000000
vn 1.000000 -0.000000 0.000000
vn 1.000000 -0.000000 0.000000
vn 1.000000 0.000300 0.000000
vn 1.000000 0.000300 0.000000
vn 1.000000 0.000300 0.000000
vn 1.000000 0.000300 0.000000
vn -0.169700 0.593600 -0.786700
vn -0.169700 0.593600 -0.786700
vn -0.169700 0.593600 -0.786700
vn -0.169700 0.593600 -0.786700
vn -1.000000 0.000000 0.000000
vn -1.000000 0.000000 0.000000
vn -1.000000 0.000000 0.000000
vn -1.000000 0.000000 0.000000
vn -0.047000 -0.979200 -0.197300
vn -0.047000 -0.979200 -0.197300
vn -0.047000 -0.979200 -0.197300
vn -0.047000 -0.979200 -0.197300
vn -0.043800 -0.979400 -0.197300
vn -0.043800 -0.979400 -0.197300
vn -0.043800 -0.979400 -0.197300
vn -0.043800 -0.979400 -0.197300
vn -0.047000 0.979200 -0.197300
vn -0.047000 0.979200 -0.197300
vn -0.047000 0.979200 -0.197300
vn -0.047000 0.979200 -0.197300
vn -0.126100 0.000000 -0.992000
vn -0.126100 0.000000 -0.992000
vn -0.126100 0.000000 -0.992000
vn -0.126100 0.000000 -0.992000
vn -0.116900 0.150200 -0.981700
vn -0.116900 0.150200 -0.981700
vn -0.116900 0.150200 -0.981700
vn -0.116900 0.150200 -0.981700
vn -0.102300 0.897200 -0.429600
vn -0.102300 0.897200 -0.429600
vn -0.102300 0.897200 -0.429600
vn -0.102300 0.897200 -0.429600
vn -0.026300 -0.985100 -0.169900
vn -0.026300 -0.985100 -0.169900
vn -0.026300 -0.985100 -0.169900
vn -0.026300 -0.985100 -0.169900
vn -1.000000 0.000000 0.000000
vn -1.000000 0.000000 0.000000
vn -1.000000 0.000000 0.000000
vn -1.000000 0.000000 0.000000
vn -0.016900 -0.997500 0.069000
vn -0.016900 -0.997500 0.069000
vn -0.016900 -0.997500 0.069000
vn -0.016900 -0.997500 0.069000
vn 0.000000 0.000000 1.000000
vn 0.000000 0.000000 1.000000
vn 0.000000 0.000000 1.000000
vn 0.000000 0.000000 1.000000
vn -0.000000 -0.487700 0.873000
vn -0.000000 -0.487700 0.873000
vn -0.000000 -0.487700 0.873000
vn -0.000000 -0.487700 0.873000
vn 0.000000 0.000000 -1.000000
vn 0.000000 0.000000 -1.000000
vn 0.000000 0.000000 -1.000000
vn 0.000000 0.000000 -1.000000
vn -0.000000 -0.487700 -0.873000
vn -0.000000 -0.487700 -0.873000
vn -0.000000 -0.487700 -0.873000
vn -0.000000 -0.487700 -0.873000
vn -0.000000 0.752600 0.658500
vn -0.000000 0.752600 0.658500
vn -0.000000 0.752600 0.658500
vn -0.000000 0.752600 0.658500
vn 0.000000 1.000000 -0.000000
vn 0.000000 1.000000 -0.000000
vn 0.000000 1.000000 -0.000000
vn 0.000000 1.000000 -0.000000
vn 0.000000 0.393900 -0.919100
vn 0.000000 0.393900 -0.919100
vn 0.000000 0.393900 -0.919100
vn 0.000000 0.393900 -0.919100
vn -0.000000 -0.292700 0.956200
vn -0.000000 -0.292700 0.956200
vn -0.000000 -0.292700 0.956200
vn -0.000000 -0.292700 0.956200
vn 0.000000 0.292700 0.956200
vn 0.000000 0.292700 0.956200
vn 0.000000 0.292700 0.956200
vn 0.000000 0.292700 0.956200
vn 0.000000 0.000000 -1.000000
vn 0.000000 0.000000 -1.000000
vn 0.000000 0.000000 -1.000000
vn 0.000000 0.000000 -1.000000
vn 0.000000 0.000000 1.000000
vn 0.000000 0.000000 1.000000
vn 0.000000 0.000000 1.000000
vn 0.000000 0.000000 1.000000
vn 0.000000 0.000000 -1.000000
vn 0.000000 0.000000 -1.000000
vn 0.000000 -0.588300 0.808700
vn 0.000000 -0.588300 0.808700
vn 0.000000 -0.588300 0.808700
vn 0.000000 -0.588300 0.808700
vn 0.000000 0.000000 1.000000
vn 0.000000 0.000000 1.000000
vn 0.000000 0.000000 1.000000
vn 0.000000 0.000000 1.000000
vn 0.000000 0.588300 0.808700
vn 0.000000 0.588300 0.808700
vn 0.000000 0.588300 0.808700
vn 0.000000 0.588300 0.808700
vn 0.000000 0.000000 -1.000000
vn 0.000000 0.000000 -1.000000
vn 0.000000 0.000000 -1.000000
vn 0.000000 0.000000 -1.000000
vn 0.000000 0.000000 -1.000000
vn 0.000000 0.000000 -1.000000
vn 0.000000 0.000000 1.000000
vn 0.000000 0.000000 1.000000
vn 0.000000 0.000000 1.000000
vn 0.000000 0.000000 1.000000
vn 0.000000 0.000000 -1.000000
vn 0.000000 0.000000 -1.000000
vn 0.000000 0.312500 0.949900
vn 0.000000 0.312500 0.949900
vn 0.000000 0.312500 0.949900
vn 0.000000 0.312500 0.949900
vn 0.000000 0.000000 -1.000000
vn 0.000000 0.000000 -1.000000
vn -0.000000 -1.000000 0.000000
vn -0.000000 -1.000000 0.000000
vn -0.000000 -1.000000 0.000000
vn -0.000000 -1.000000 0.000000
vn 0.000000 0.000000 1.000000
vn 0.000000 0.000000 1.000000
vn 0.000000 0.000000 1.000000
vn 0.000000 0.000000 1.000000
vn -0.000000 -0.487700 0.873000
vn -0.000000 -0.487700 0.873000
vn -0.000000 -0.487700 0.873000
vn -0.000000 -0.487700 0.873000
vn 0.000000 0.000000 -1.000000
vn 0.000000 0.000000 -1.000000
vn 0.000000 0.000000 -1.000000
vn 0.000000 0.000000 -1.000000
vn -0.000000 -0.487700 -0.873000
vn -0.000000 -0.487700 -0.873000
vn -0.000000 -0.487700 -0.873000
vn -0.000000 -0.487700 -0.873000
vn -0.000000 0.752600 0.658500
vn -0.000000 0.752600 0.658500
vn -0.000000 0.752600 0.658500
vn -0.000000 0.752600 0.658500
vn 0.000000 1.000000 -0.000000
vn 0.000000 1.000000 -0.000000
vn 0.000000 1.000000 -0.000000
vn 0.000000 1.000000 -0.000000
vn 0.000000 0.393900 -0.919100
vn 0.000000 0.393900 -0.919100
vn 0.000000 0.393900 -0.919100
vn 0.000000 0.393900 -0.919100
vn -0.000000 -0.292700 0.956200
vn -0.000000 -0.292700 0.956200
vn -0.000000 -0.292700 0.956200
vn -0.000000 -0.292700 0.956200
vn 0.000000 0.292700 0.956200
vn 0.000000 0.292700 0.956200
vn 0.000000 0.292700 0.956200
vn 0.000000 0.292700 0.956200
vn 0.000000 0.000000 -1.000000
vn 0.000000 0.000000 -1.000000
vn 0.000000 0.000000 -1.000000
vn 0.000000 0.000000 -1.000000
vn 0.000000 0.000000 1.000000
vn 0.000000 0.000000 1.000000
vn 0.000000 0.000000 1.000000
vn 0.000000 0.000000 1.000000
vn 0.000000 0.000000 -1.000000
vn 0.000000 0.000000 -1.000000
vn 0.000000 -0.588300 0.808700
vn 0.000000 -0.588300 0.808700
vn 0.000000 -0.588300 0.808700
vn 0.000000 -0.588300 0.808700
vn 0.000000 0.000000 1.000000
vn 0.000000 0.000000 1.000000
vn 0.000000 0.000000 1.000000
vn 0.000000 0.000000 1.000000
vn 0.000000 0.588300 0.808700
vn 0.000000 0.588300 0.808700
vn 0.000000 0.588300 0.808700
vn 0.000000 0.588300 0.808700
vn 0.000000 0.000000 -1.000000
vn 0.000000 0.000000 -1.000000
vn 0.000000 0.000000 -1.000000
vn 0.000000 0.000000 -1.000000
vn 0.000000 0.000000 -1.000000
vn 0.000000 0.000000 -1.000000
vn 0.000000 0.000000 1.000000
vn 0.000000 0.000000 1.000000
vn 0.000000 0.000000 1.000000
vn 0.000000 0.000000 1.000000
vn 0.000000 0.000000 -1.000000
vn 0.000000 0.000000 -1.000000
vn 0.000000 0.312500 0.949900
vn 0.000000 0.312500 0.949900
vn 0.000000 0.312500 0.949900
vn 0.000000 0.312500 0.949900
vn 0.000000 0.000000 -1.000000
vn 0.000000 0.000000 -1.000000
vn -0.000000 -1.000000 0.000000
vn -0.000000 -1.000000 0.000000
vn -0.000000 -1.000000 0.000000
vn -0.000000 -1.000000 0.000000
vt 0.000000 0.000000
vt 0.000000 0.000000
vt 0.000000 0.000000
vt 0.000000 0.000000
vt 0.000000 0.000000
vt 0.000000 0.000000
vt 0.000000 0.000000
vt 0.000000 0.000000
vt 0.000000 0.000000
vt 0.000000 0.000000
vt 0.000000 0.000000
vt 0.000000 0.000000
vt 0.000000 0.000000
vt 0.000000 0.000000
vt 0.000000 0.000000
vt 0.000000 0.000000
vt 0.000000 0.000000
vt 0.000000 0.000000
vt 0.000000 0.000000
vt 0.000000 0.000000
vt 0.000000 0.000000
vt 0.000000 0.000000
vt 0.000000 0.000000
vt 0.000000 0.000000
vt 0.000000 0.000000
vt 0.000000 0.000000
vt 0.000000 0.000000
vt 0.000000 0.000000
vt 0.000000 0.000000
vt 0.000000 0.000000
vt 0.000000 0.000000
vt 0.000000 0.000000
vt 0.000000 0.000000
vt 0.000000 0.000000
vt 0.000000 0.000000
vt 0.000000 0.000000
vt 0.000000 0.000000
vt 0.000000 0.000000
vt 0.000000 0.000000
vt 0.000000 0.000000
vt 0.000000 0.000000
vt 0.000000 0.000000
vt 0.000000 0.000000
vt 0.000000 0.000000
vt 0.000000 0.000000
vt 0.000000 0.000000
vt 0.000000 0.000000
vt 0.000000 0.000000
vt 0.000000 0.000000
vt 0.000000 0.000000
vt 0.000000 0.000000
vt 0.000000 0.000000
vt 0.000000 0.000000
vt 0.000000 0.000000
vt 0.000000 0.000000
vt 0.000000 0.000000
vt 0.000000 0.000000
vt 0.000000 0.000000
vt 0.000000 0.000000
vt 0.000000 0.000000
vt 0.000000 0.000000
vt 0.000000 0.000000
vt 0.000000 0.000000
vt 0.000000 0.000000
vt 0.000000 0.000000
vt 0.000000 0.000000
vt 0.000000 0.000000
vt 0.000000 0.000000
vt 0.000000 0.000000
vt 0.000000 0.000000
vt 0.000000 0.000000
vt 0.000000 0.000000
vt 0.000000 0.000000
vt 0.000000 0.000000
vt 0.000000 0.000000
vt 0.000000 0.000000
vt 0.000000 0.000000
vt 0.000000 0.000000
vt 0.000000 0.000000
vt 0.000000 0.000000
vt 0.000000 0.000000
vt 0.000000 0.000000
vt 0.000000 0.000000
vt 0.000000 0.000000
vt 0.000000 0.000000
vt 0.000000 0.000000
vt 0.000000 0.000000
vt 0.000000 0.000000
vt 0.000000 0.000000
vt 0.000000 0.000000
vt 0.000000 0.000000
vt 0.000000 0.000000
vt 0.000000 0.000000
vt 0.000000 0.000000
vt 0.000000 0.000000
vt 0.000000 0.000000
vt 0.000000 0.000000
vt 0.000000 0.000000
vt 0.000000 0.000000
vt 0.000000 0.000000
vt 0.000000 0.000000
vt 0.000000 0.000000
vt 0.000000 0.000000
vt 0.000000 0.000000
vt 0.000000 0.000000
vt 0.000000 0.000000
vt 0.000000 0.000000
vt 0.000000 0.000000
vt 0.000000 0.000000
vt 0.000000 0.000000
vt 0.000000 0.000000
vt 0.000000 0.000000
vt 0.000000 0.000000
vt 0.000000 0.000000
vt 0.000000 0.000000
vt 0.000000 0.000000
vt 0.000000 0.000000
vt 0.000000 0.000000
vt 0.000000 0.000000
vt 0.000000 0.000000
vt 0.000000 0.000000
vt 0.000000 0.000000
vt 0.000000 0.000000
vt 0.000000 0.000000
vt 0.000000 0.000000
vt 0.000000 0.000000
vt 0.000000 0.000000
vt 0.000000 0.000000
vt 0.000000 0.000000
vt 0.000000 0.000000
vt 0.000000 0.000000
vt 0.000000 0.000000
vt 0.000000 0.000000
vt 0.000000 0.000000
vt 0.000000 0.000000
vt 0.000000 0.000000
vt 0.000000 0.000000
vt 0.000000 0.000000
vt 0.000000 0.000000
vt 0.000000 0.000000
vt 0.000000 0.000000
vt 0.000000 0.000000
vt 0.000000 0.000000
vt 0.000000 0.000000
vt 0.000000 0.000000
vt 0.000000 0.000000
vt 0.000000 0.000000
vt 0.000000 0.000000
vt 0.000000 0.000000
vt 0.000000 0.000000
vt 0.000000 0.000000
vt 0.000000 0.000000
vt 0.000000 0.000000
vt 0.000000 0.000000
vt 0.000000 0.000000
vt 0.000000 0.000000
vt 0.000000 0.000000
vt 0.000000 0.000000
vt 0.000000 0.000000
vt 0.000000 0.000000
vt 0.000000 0.000000
vt 0.000000 0.000000
vt 0.000000 0.000000
vt 0.000000 0.000000
vt 0.000000 0.000000
vt 0.000000 0.000000
vt 0.000000 0.000000
vt 0.000000 0.000000
vt 0.000000 0.000000
vt 0.000000 0.000000
vt 0.000000 0.000000
vt 0.000000 0.000000
vt 0.000000 0.000000
vt 0.000000 0.000000
vt 0.000000 0.000000
vt 0.000000 0.000000
vt 0.000000 0.000000
vt 0.000000 0.000000
vt 0.000000 0.000000
vt 0.000000 0.000000
vt 0.000000 0.000000
vt 0.000000 0.000000
vt 0.000000 0.000000
vt 0.000000 0.000000
vt 0.000000 0.000000
vt 0.000000 0.000000
vt 0.000000 0.000000
vt 0.000000 0.000000
vt 0.000000 0.000000
vt 0.000000 0.000000
vt 0.000000 0.000000
vt 0.000000 0.000000
vt 0.000000 0.000000
vt 0.000000 0.000000
vt 0.000000 0.000000
vt 0.000000 0.000000
vt 0.000000 0.000000
vt 0.000000 0.000000
vt 0.000000 0.000000
vt 0.000000 0.000000
vt 0.000000 0.000000
vt 0.000000 0.000000
vt 0.000000 0.000000
vt 0.000000 0.000000
vt 0.000000 0.000000
vt 0.000000 0.000000
vt 0.000000 0.000000
vt 0.000000 0.000000
vt 0.000000 0.000000
vt 0.000000 0.000000
vt 0.000000 0.000000
vt 0.000000 0.000000
vt 0.000000 0.000000
vt 0.000000 0.000000
vt 0.000000 0.000000
vt 0.000000 0.000000
vt 0.000000 0.000000
vt 0.000000 0.000000
vt 0.000000 0.000000
vt 0.000000 0.000000
vt 0.000000 0.000000
vt 0.000000 0.000000
vt 0.000000 0.000000
vt 0.000000 0.000000
vt 0.000000 0.000000
vt 0.000000 0.000000
vt 0.000000 0.000000
vt 0.000000 0.000000
vt 0.000000 0.000000
vt 0.000000 0.000000
vt 0.000000 0.000000
vt 0.000000 0.000000
f 1/1/1 2/2/2 3/3/3
f 1/1/1 3/3/3 4/4/4
f 4/4/4 5/5/5 6/6/6
f 4/4/4 6/6/6 1/1/1
f 5/5/5 7/7/7 8/8/8
f 5/5/5 8/8/8 6/6/6
f 7/7/7 9/9/9 10/10/10
f 7/7/7 10/10/10 8/8/8
f 9/9/9 11/11/11 12/12/12
f 9/9/9 12/12/12 10/10/10
f 11/11/11 13/13/13 14/14/14
f 11/11/11 14/14/14 12/12/12
f 13/13/13 15/15/15 16/16/16
f 13/13/13 16/16/16 14/14/14
f 15/15/15 17/17/17 18/18/18
f 15/15/15 18/18/18 16/16/16
f 19/19/19 20/20/20 21/21/21
f 19/19/19 21/21/21 22/22/22
f 17/17/17 23/23/23 24/24/24
f 17/17/17 24/24/24 18/18/18
f 25/25/25 26/26/26 27/27/27
f 25/25/25 27/27/27 28/28/28
f 29/29/29 30/30/30 31/31/31
f 29/29/29 31/31/31 32/32/32
f 33/33/33 34/34/34 35/35/35
f 33/33/33 35/35/35 36/36/36
f 37/37/37 38/38/38 39/39/39
f 37/37/37 39/39/39 40/40/40
f 41/41/41 42/42/42 43/43/43
f 41/41/41 43/43/43 44/44/44
f 45/45/45 46/46/46 47/47/47
f 45/45/45 47/47/47 48/48/48
f 49/49/49 50/50/50 51/51/51
f 49/49/49 51/51/51 52/52/52
f 53/53/53 54/54/54 55/55/55
f 53/53/53 55/55/55 56/56/56
f 57/57/57 58/58/58 59/59/59
f 57/57/57 59/59/59 60/60/60
f 61/61/61 62/62/62 63/63/63
f 61/61/61 63/63/63 64/64/64
f 65/65/65 66/66/66 67/67/67
f 65/65/65 67/67/67 68/68/68
f 69/69/69 70/70/70 71/71/71
f 69/69/69 71/71/71 72/72/72
f 73/73/73 74/74/74 75/75/75
f 73/73/73 75/75/75 76/76/76
f 77/77/77 78/78/78 79/79/79
f 77/77/77 79/79/79 80/80/80
f 81/81/81 82/82/82 83/83/83
f 81/81/81 83/83/83 84/84/84
f 85/85/85 86/86/86 87/87/87
f 85/85/85 87/87/87 88/88/88
f 89/89/89 90/90/90 91/91/91
f 89/89/89 91/91/91 92/92/92
f 93/93/93 94/94/94 95/95/95
f 93/93/93 95/95/95 96/96/96
f 97/97/97 98/98/98 99/99/99
f 97/97/97 99/99/99 100/100/100
f 101/101/101 102/102/102 103/103/103
f 101/101/101 103/103/103 104/104/104
f 105/105/105 106/106/106 107/107/107
f 105/105/105 107/107/107 108/108/108
f 109/109/109 110/110/110 111/111/111
f 109/109/109 111/111/111 112/112/112
f 84/84/84 83/83/83 110/110/110
f 84/84/84 110/110/110 109/109/109
f 113/113/113 114/114/114 115/115/115
f 113/113/113 115/115/115 116/116/116
f 112/112/112 111/111/111 117/117/117
f 112/112/112 117/117/117 118/118/118
f 119/119/119 120/120/120 121/121/121
f 119/119/119 121/121/121 122/122/122
f 123/123/123 124/124/124 125/125/125
f 123/123/123 125/125/125 126/126/126
f 127/127/127 128/128/128 129/129/129
f 127/127/127 129/129/129 130/130/130
f 131/131/131 132/132/132 133/133/133
f 131/131/131 133/133/133 134/134/134
f 135/135/135 136/136/136 132/132/132
f 135/135/135 132/132/132 131/131/131
f 118/118/118 117/117/117 136/136/136
f 118/118/118 136/136/136 135/135/135
f 137/137/137 138/138/138 139/139/139
f 137/137/137 139/139/139 140/140/140
f 134/134/134 133/133/133 141/141/141
f 134/134/134 141/141/141 142/142/142
f 143/143/143 144/144/144 145/145/145
f 143/143/143 145/145/145 146/146/146
f 142/142/142 141/141/141 147/147/147
f 142/142/142 147/147/147 148/148/148
f 149/149/149 150/150/150 151/151/151
f 149/149/149 151/151/151 152/152/152
f 153/153/153 154/154/154 155/155/155
f 153/153/153 155/155/155 156/156/156
f 157/157/157 158/158/158 159/159/159
f 157/157/157 159/159/159 160/160/160
f 161/161/161 162/162/162 163/163/163
f 161/161/161 163/163/163 164/164/164
f 165/165/165 166/166/166 167/167/167
f 165/165/165 167/167/167 168/168/168
f 169/169/169 170/170/170 171/171/171
f 169/169/169 171/171/171 172/172/172
f 173/173/173 174/174/174 175/175/175
f 173/173/173 175/175/175 176/176/176
f 177/177/177 178/178/178 179/179/179
f 177/177/177 179/179/179 180/180/180
f 181/181/181 182/182/182 183/183/183
f 181/181/181 183/183/183 184/184/184
f 185/185/185 186/186/186 187/187/187
f 185/185/185 187/187/187 188/188/188
f 189/189/189 190/190/190 191/191/191
f 189/189/189 191/191/191 192/192/192
f 164/164/164 163/163/163 190/190/190
f 164/164/164 190/190/190 189/189/189
f 193/193/193 194/194/194 195/195/195
f 193/193/193 195/195/195 196/196/196
f 192/192/192 191/191/191 197/197/197
f 192/192/192 197/197/197 198/198/198
f 199/199/199 200/200/200 201/201/201
f 199/199/199 201/201/201 202/202/202
f 203/203/203 204/204/204 205/205/205
f 203/203/203 205/205/205 206/206/206
f 207/207/207 208/208/208 209/209/209
f 207/207/207 209/209/209 210/210/210
f 211/211/211 212/212/212 213/213/213
f 211/211/211 213/213/213 214/214/214
f 215/215/215 216/216/216 212/212/212
f 215/215/215 212/212/212 211/211/211
f 198/198/198 197/197/197 216/216/216
f 198/198/198 216/216/216 215/215/215
f 217/217/217 218/218/218 219/219/219
f 217/217/217 219/219/219 220/220/220
f 214/214/214 213/213/213 221/221/221
f 214/214/214 221/221/221 222/222/222
f 223/223/223 224/224/224 225/225/225
f 223/223/223 225/225/225 226/226/226
f 227/227/227 228/228/228 222/222/222
f 227/227/227 222/222/222 221/221/221
f 229/229/229 230/230/230 231/231/231
f 229/229/229 231/231/231 232/232/232
