v 0.056184 2.678080 -2.746615
v 0.056928 2.678080 -2.747044
v 0.056928 1.707403 -2.747044
v 0.056184 1.707403 -2.746615
v 0.056184 2.678080 -2.745756
v 0.056184 1.707403 -2.745756
v 0.056928 2.678080 -2.745326
v 0.056928 1.707403 -2.745326
v 0.057672 2.678080 -2.745756
v 0.057672 1.707403 -2.745756
v 0.057672 2.678080 -2.746615
v 0.057672 1.707403 -2.746615
vn 0.499900 0.000000 -0.866100
vn -1.000000 0.000000 0.000000
vn -1.000000 0.000000 0.000000
vn 0.499900 0.000000 -0.866100
vn 0.866100 0.000000 -0.499900
vn 0.866100 0.000000 -0.499900
vn 0.000000 0.000000 -1.000000
vn 0.000000 0.000000 -1.000000
vn -0.866100 0.000000 -0.499900
vn -0.866100 0.000000 -0.499900
vn -0.866100 0.000000 0.499900
vn -0.866100 0.000000 0.499900
vt 0.000000 0.000000
vt 0.000000 0.000000
vt 0.000000 0.000000
vt 0.000000 0.000000
vt 0.000000 0.000000
vt 0.000000 0.000000
vt 0.000000 0.000000
vt 0.000000 0.000000
vt 0.000000 0.000000
vt 0.000000 0.000000
vt 0.000000 0.000000
vt 0.000000 0.000000
f 1/1/1 2/2/2 3/3/3
f 1/1/1 3/3/3 4/4/4
f 1/1/1 5/5/5 6/6/6
f 1/1/1 6/6/6 4/4/4
f 5/5/5 7/7/7 8/8/8
f 5/5/5 8/8/8 6/6/6
f 7/7/7 9/9/9 10/10/10
f 7/7/7 10/10/10 8/8/8
f 9/9/9 11/11/11 12/12/12
f 9/9/9 12/12/12 10/10/10
f 11/11/11 2/2/2 3/3/3
f 11/11/11 3/3/3 12/12/12
