v -1.838757 1.070195 -2.205916
v -1.844664 1.070195 -2.205916
v -1.843872 1.070195 -2.208869
v -1.838757 1.338166 -2.205916
v -1.843853 1.338166 -2.208858
v -1.844642 1.338166 -2.205916
v -1.841710 1.070195 -2.211031
v -1.841699 1.338166 -2.211012
v -1.838757 1.070195 -2.211823
v -1.838757 1.338166 -2.211801
v -1.835803 1.070195 -2.211031
v -1.835814 1.338166 -2.211012
v -1.833641 1.070195 -2.208869
v -1.833660 1.338166 -2.208858
v -1.832849 1.070195 -2.205916
v -1.832871 1.338166 -2.205916
v -1.833641 1.070195 -2.202962
v -1.833660 1.338166 -2.202973
v -1.835803 1.070195 -2.200800
v -1.835814 1.338166 -2.200819
v -1.838757 1.070195 -2.200009
v -1.838757 1.338166 -2.200031
v -1.841710 1.070195 -2.200800
v -1.841699 1.338166 -2.200819
v -1.843872 1.070195 -2.202962
v -1.843853 1.338166 -2.202973
v -1.844664 1.070195 -2.205916
v -1.845959 1.073509 -2.205916
v -1.844994 1.073509 -2.209517
v -1.843872 1.070195 -2.208869
v -1.845959 1.334852 -2.205916
v -1.844994 1.334852 -2.209517
v -1.844642 1.338166 -2.205916
v -1.843853 1.338166 -2.208858
v -1.842358 1.073509 -2.212153
v -1.841710 1.070195 -2.211031
v -1.842358 1.334852 -2.212153
v -1.841699 1.338166 -2.211012
v -1.838757 1.073509 -2.213118
v -1.838757 1.070195 -2.211823
v -1.838757 1.334852 -2.213118
v -1.838757 1.338166 -2.211801
v -1.835155 1.073509 -2.212153
v -1.835803 1.070195 -2.211031
v -1.835155 1.334852 -2.212153
v -1.835814 1.338166 -2.211012
v -1.832519 1.073509 -2.209517
v -1.833641 1.070195 -2.208869
v -1.832519 1.334852 -2.209517
v -1.833660 1.338166 -2.208858
v -1.831554 1.073509 -2.205916
v -1.832849 1.070195 -2.205916
v -1.831554 1.334852 -2.205916
v -1.832871 1.338166 -2.205916
v -1.832519 1.073509 -2.202315
v -1.833641 1.070195 -2.202962
v -1.832519 1.334852 -2.202315
v -1.833660 1.338166 -2.202973
v -1.835155 1.073509 -2.199678
v -1.835803 1.070195 -2.200800
v -1.835155 1.334852 -2.199678
v -1.835814 1.338166 -2.200819
v -1.838757 1.073509 -2.198713
v -1.838757 1.070195 -2.200009
v -1.838757 1.334852 -2.198713
v -1.838757 1.338166 -2.200031
v -1.842358 1.073509 -2.199678
v -1.841710 1.070195 -2.200800
v -1.842358 1.334852 -2.199678
v -1.841699 1.338166 -2.200819
v -1.844994 1.073509 -2.202315
v -1.843872 1.070195 -2.202962
v -1.844994 1.334852 -2.202315
v -1.843853 1.338166 -2.202973
vn 0.000000 -1.000000 0.000000
vn 0.000000 -1.000000 0.000000
vn 0.000000 -1.000000 0.000000
vn 0.000000 1.000000 0.000000
vn 0.000000 1.000000 0.000000
vn 0.000000 1.000000 0.000000
vn 0.000000 -1.000000 0.000000
vn 0.000000 1.000000 0.000000
vn 0.000000 -1.000000 0.000000
vn 0.000000 1.000000 0.000000
vn 0.000000 -1.000000 0.000000
vn 0.000000 1.000000 0.000000
vn 0.000000 -1.000000 0.000000
vn 0.000000 1.000000 0.000000
vn 0.000000 -1.000000 0.000000
vn 0.000000 1.000000 0.000000
vn 0.000000 -1.000000 0.000000
vn 0.000000 1.000000 0.000000
vn 0.000000 -1.000000 0.000000
vn 0.000000 1.000000 0.000000
vn 0.000000 -1.000000 0.000000
vn 0.000000 1.000000 0.000000
vn 0.000000 -1.000000 0.000000
vn 0.000000 1.000000 0.000000
vn 0.000000 -1.000000 0.000000
vn 0.000000 1.000000 0.000000
vn -0.931400 -0.364000 0.000000
vn -0.983700 -0.179900 0.000000
vn -0.851900 -0.179900 -0.491800
vn -0.806600 -0.364000 -0.465700
vn -0.983200 0.182500 0.000000
vn -0.851500 0.182500 -0.491600
vn -0.929300 0.369300 0.000000
vn -0.804800 0.369300 -0.464600
vn -0.491900 -0.179900 -0.851900
vn -0.465700 -0.364000 -0.806600
vn -0.491600 0.182500 -0.851400
vn -0.464700 0.369300 -0.804800
vn 0.000000 -0.179900 -0.983700
vn 0.000000 -0.364000 -0.931400
vn 0.000000 0.182500 -0.983200
vn 0.000000 0.369300 -0.929300
vn 0.491900 -0.179900 -0.851900
vn 0.465700 -0.364000 -0.806600
vn 0.491600 0.182500 -0.851400
vn 0.464700 0.369300 -0.804800
vn 0.851900 -0.179900 -0.491800
vn 0.806600 -0.364000 -0.465700
vn 0.851500 0.182500 -0.491600
vn 0.804800 0.369300 -0.464600
vn 0.983700 -0.179900 0.000000
vn 0.931400 -0.364000 0.000000
vn 0.983200 0.182500 0.000000
vn 0.929300 0.369300 0.000000
vn 0.851900 -0.179900 0.491800
vn 0.806600 -0.364000 0.465700
vn 0.851500 0.182500 0.491600
vn 0.804800 0.369300 0.464600
vn 0.491800 -0.179900 0.851900
vn 0.465700 -0.364000 0.806600
vn 0.491600 0.182500 0.851400
vn 0.464700 0.369300 0.804800
vn 0.000000 -0.179900 0.983700
vn 0.000000 -0.364000 0.931400
vn 0.000000 0.182500 0.983200
vn 0.000000 0.369300 0.929300
vn -0.491800 -0.179800 0.851900
vn -0.465700 -0.364000 0.806600
vn -0.491600 0.182500 0.851400
vn -0.464700 0.369300 0.804800
vn -0.851900 -0.179800 0.491800
vn -0.806600 -0.364000 0.465700
vn -0.851500 0.182500 0.491600
vn -0.804800 0.369300 0.464600
vt 0.000000 0.000000
vt 0.000000 0.000000
vt 0.000000 0.000000
vt 0.000000 0.000000
vt 0.000000 0.000000
vt 0.000000 0.000000
vt 0.000000 0.000000
vt 0.000000 0.000000
vt 0.000000 0.000000
vt 0.000000 0.000000
vt 0.000000 0.000000
vt 0.000000 0.000000
vt 0.000000 0.000000
vt 0.000000 0.000000
vt 0.000000 0.000000
vt 0.000000 0.000000
vt 0.000000 0.000000
vt 0.000000 0.000000
vt 0.000000 0.000000
vt 0.000000 0.000000
vt 0.000000 0.000000
vt 0.000000 0.000000
vt 0.000000 0.000000
vt 0.000000 0.000000
vt 0.000000 0.000000
vt 0.000000 0.000000
vt 0.000000 0.000000
vt 0.000000 0.000000
vt 0.000000 0.000000
vt 0.000000 0.000000
vt 0.000000 0.000000
vt 0.000000 0.000000
vt 0.000000 0.000000
vt 0.000000 0.000000
vt 0.000000 0.000000
vt 0.000000 0.000000
vt 0.000000 0.000000
vt 0.000000 0.000000
vt 0.000000 0.000000
vt 0.000000 0.000000
vt 0.000000 0.000000
vt 0.000000 0.000000
vt 0.000000 0.000000
vt 0.000000 0.000000
vt 0.000000 0.000000
vt 0.000000 0.000000
vt 0.000000 0.000000
vt 0.000000 0.000000
vt 0.000000 0.000000
vt 0.000000 0.000000
vt 0.000000 0.000000
vt 0.000000 0.000000
vt 0.000000 0.000000
vt 0.000000 0.000000
vt 0.000000 0.000000
vt 0.000000 0.000000
vt 0.000000 0.000000
vt 0.000000 0.000000
vt 0.000000 0.000000
vt 0.000000 0.000000
vt 0.000000 0.000000
vt 0.000000 0.000000
vt 0.000000 0.000000
vt 0.000000 0.000000
vt 0.000000 0.000000
vt 0.000000 0.000000
vt 0.000000 0.000000
vt 0.000000 0.000000
vt 0.000000 0.000000
vt 0.000000 0.000000
vt 0.000000 0.000000
vt 0.000000 0.000000
vt 0.000000 0.000000
vt 0.000000 0.000000
f 1/1/1 2/2/2 3/3/3
f 4/4/4 5/5/5 6/6/6
f 1/1/1 3/3/3 7/7/7
f 4/4/4 8/8/8 5/5/5
f 1/1/1 7/7/7 9/9/9
f 4/4/4 10/10/10 8/8/8
f 1/1/1 9/9/9 11/11/11
f 4/4/4 12/12/12 10/10/10
f 1/1/1 11/11/11 13/13/13
f 4/4/4 14/14/14 12/12/12
f 1/1/1 13/13/13 15/15/15
f 4/4/4 16/16/16 14/14/14
f 1/1/1 15/15/15 17/17/17
f 4/4/4 18/18/18 16/16/16
f 1/1/1 17/17/17 19/19/19
f 4/4/4 20/20/20 18/18/18
f 1/1/1 19/19/19 21/21/21
f 4/4/4 22/22/22 20/20/20
f 1/1/1 21/21/21 23/23/23
f 4/4/4 24/24/24 22/22/22
f 1/1/1 23/23/23 25/25/25
f 4/4/4 26/26/26 24/24/24
f 25/25/25 2/2/2 1/1/1
f 4/4/4 6/6/6 26/26/26
f 27/27/27 28/28/28 29/29/29
f 27/27/27 29/29/29 30/30/30
f 28/28/28 31/31/31 32/32/32
f 28/28/28 32/32/32 29/29/29
f 31/31/31 33/33/33 34/34/34
f 31/31/31 34/34/34 32/32/32
f 30/30/30 29/29/29 35/35/35
f 30/30/30 35/35/35 36/36/36
f 29/29/29 32/32/32 37/37/37
f 29/29/29 37/37/37 35/35/35
f 32/32/32 34/34/34 38/38/38
f 32/32/32 38/38/38 37/37/37
f 36/36/36 35/35/35 39/39/39
f 36/36/36 39/39/39 40/40/40
f 35/35/35 37/37/37 41/41/41
f 35/35/35 41/41/41 39/39/39
f 37/37/37 38/38/38 42/42/42
f 37/37/37 42/42/42 41/41/41
f 40/40/40 39/39/39 43/43/43
f 40/40/40 43/43/43 44/44/44
f 39/39/39 41/41/41 45/45/45
f 39/39/39 45/45/45 43/43/43
f 41/41/41 42/42/42 46/46/46
f 41/41/41 46/46/46 45/45/45
f 44/44/44 43/43/43 47/47/47
f 44/44/44 47/47/47 48/48/48
f 43/43/43 45/45/45 49/49/49
f 43/43/43 49/49/49 47/47/47
f 45/45/45 46/46/46 50/50/50
f 45/45/45 50/50/50 49/49/49
f 48/48/48 47/47/47 51/51/51
f 48/48/48 51/51/51 52/52/52
f 47/47/47 49/49/49 53/53/53
f 47/47/47 53/53/53 51/51/51
f 49/49/49 50/50/50 54/54/54
f 49/49/49 54/54/54 53/53/53
f 52/52/52 51/51/51 55/55/55
f 52/52/52 55/55/55 56/56/56
f 51/51/51 53/53/53 57/57/57
f 51/51/51 57/57/57 55/55/55
f 53/53/53 54/54/54 58/58/58
f 53/53/53 58/58/58 57/57/57
f 56/56/56 55/55/55 59/59/59
f 56/56/56 59/59/59 60/60/60
f 55/55/55 57/57/57 61/61/61
f 55/55/55 61/61/61 59/59/59
f 57/57/57 58/58/58 62/62/62
f 57/57/57 62/62/62 61/61/61
f 60/60/60 59/59/59 63/63/63
f 60/60/60 63/63/63 64/64/64
f 59/59/59 61/61/61 65/65/65
f 59/59/59 65/65/65 63/63/63
f 61/61/61 62/62/62 66/66/66
f 61/61/61 66/66/66 65/65/65
f 64/64/64 63/63/63 67/67/67
f 64/64/64 67/67/67 68/68/68
f 63/63/63 65/65/65 69/69/69
f 63/63/63 69/69/69 67/67/67
f 65/65/65 66/66/66 70/70/70
f 65/65/65 70/70/70 69/69/69
f 68/68/68 67/67/67 71/71/71
f 68/68/68 71/71/71 72/72/72
f 67/67/67 69/69/69 73/73/73
f 67/67/67 73/73/73 71/71/71
f 69/69/69 70/70/70 74/74/74
f 69/69/69 74/74/74 73/73/73
f 33/33/33 31/31/31 73/73/73
f 33/33/33 73/73/73 74/74/74
f 31/31/31 28/28/28 71/71/71
f 31/31/31 71/71/71 73/73/73
f 28/28/28 27/27/27 72/72/72
f 28/28/28 72/72/72 71/71/71
