v 0.884695 0.831617 -2.793620
v 0.884695 0.831617 -2.447113
v -0.765630 0.831617 -2.447113
v -0.765629 0.831617 -2.793620
v 0.884695 0.831617 -2.793620
v 0.884695 0.848566 -2.793620
v 0.884694 0.848566 -2.447113
v 0.884695 0.831617 -2.447113
v 0.884695 0.831617 -2.447113
v 0.884694 0.848566 -2.447113
v -0.765630 0.848566 -2.447113
v -0.765630 0.831617 -2.447113
v -0.765630 0.831617 -2.447113
v -0.765630 0.848566 -2.447113
v -0.765630 0.848566 -2.793620
v -0.765629 0.831617 -2.793620
v 0.884695 0.848566 -2.793620
v 0.884695 0.831617 -2.793620
v -0.765629 0.831617 -2.793620
v -0.765630 0.848566 -2.793620
v 0.884695 0.848566 -2.793620
v -0.765630 0.848566 -2.793620
v -0.765630 0.850690 -2.794005
v 0.884695 0.850690 -2.794005
v -0.765630 0.850690 -2.452596
v -0.765630 0.850690 -2.794005
v -0.765630 0.848566 -2.447113
v 0.884694 0.848566 -2.447113
v 0.884694 0.850690 -2.452596
v -0.765630 0.850690 -2.452596
v 0.884695 0.850690 -2.794005
v 0.884694 0.850690 -2.452596
v 0.884695 0.850690 -2.794005
v -0.765630 0.850690 -2.794005
v -0.765630 0.850690 -2.452596
v 0.884694 0.850690 -2.452596
vn 0.000000 -1.000000 -0.000000
vn 0.000000 -1.000000 -0.000000
vn 0.000000 -1.000000 -0.000000
vn 0.000000 -1.000000 -0.000000
vn 1.000000 0.000000 0.000000
vn 1.000000 0.000000 0.000000
vn 1.000000 0.000000 0.000000
vn 1.000000 0.000000 0.000000
vn 0.000000 0.000000 1.000000
vn 0.000000 0.000000 1.000000
vn 0.000000 0.000000 1.000000
vn 0.000000 0.000000 1.000000
vn -1.000000 -0.000000 -0.000000
vn -1.000000 -0.000000 -0.000000
vn -1.000000 -0.000000 -0.000000
vn -1.000000 -0.000000 -0.000000
vn 0.000000 0.000000 -1.000000
vn 0.000000 0.000000 -1.000000
vn 0.000000 0.000000 -1.000000
vn 0.000000 0.000000 -1.000000
vn 0.000000 -0.178300 -0.984000
vn 0.000000 -0.178300 -0.984000
vn 0.000000 -0.178300 -0.984000
vn 0.000000 -0.178300 -0.984000
vn -1.000000 -0.000000 -0.000000
vn -1.000000 -0.000000 -0.000000
vn 0.000000 0.932500 0.361300
vn 0.000000 0.932500 0.361300
vn 0.000000 0.932500 0.361300
vn 0.000000 0.932500 0.361300
vn 1.000000 0.000000 0.000000
vn 1.000000 0.000000 0.000000
vn 0.000000 1.000000 0.000000
vn 0.000000 1.000000 0.000000
vn 0.000000 1.000000 0.000000
vn 0.000000 1.000000 0.000000
vt 0.000000 0.000000
vt 0.000000 0.000000
vt 0.000000 0.000000
vt 0.000000 0.000000
vt 0.000000 0.000000
vt 0.000000 0.000000
vt 0.000000 0.000000
vt 0.000000 0.000000
vt 0.000000 0.000000
vt 0.000000 0.000000
vt 0.000000 0.000000
vt 0.000000 0.000000
vt 0.000000 0.000000
vt 0.000000 0.000000
vt 0.000000 0.000000
vt 0.000000 0.000000
vt 0.000000 0.000000
vt 0.000000 0.000000
vt 0.000000 0.000000
vt 0.000000 0.000000
vt 0.000000 0.000000
vt 0.000000 0.000000
vt 0.000000 0.000000
vt 0.000000 0.000000
vt 0.000000 0.000000
vt 0.000000 0.000000
vt 0.000000 0.000000
vt 0.000000 0.000000
vt 0.000000 0.000000
vt 0.000000 0.000000
vt 0.000000 0.000000
vt 0.000000 0.000000
vt 0.000000 0.000000
vt 0.000000 0.000000
vt 0.000000 0.000000
vt 0.000000 0.000000
f 1/1/1 2/2/2 3/3/3
f 1/1/1 3/3/3 4/4/4
f 5/5/5 6/6/6 7/7/7
f 5/5/5 7/7/7 8/8/8
f 9/9/9 10/10/10 11/11/11
f 9/9/9 11/11/11 12/12/12
f 13/13/13 14/14/14 15/15/15
f 13/13/13 15/15/15 16/16/16
f 17/17/17 18/18/18 19/19/19
f 17/17/17 19/19/19 20/20/20
f 21/21/21 22/22/22 23/23/23
f 21/21/21 23/23/23 24/24/24
f 15/15/15 14/14/14 25/25/25
f 15/15/15 25/25/25 26/26/26
f 27/27/27 28/28/28 29/29/29
f 27/27/27 29/29/29 30/30/30
f 7/7/7 6/6/6 31/31/31
f 7/7/7 31/31/31 32/32/32
f 33/33/33 34/34/34 35/35/35
f 33/33/33 35/35/35 36/36/36
