v -1.649403 0.943574 0.538528
v -1.649403 0.981547 0.538528
v -1.649404 0.981547 2.274999
v -1.649403 0.943574 2.274999
v -1.649403 0.943574 0.538528
v -1.652403 0.940574 0.538528
v -1.652403 0.943574 0.535528
v -1.649403 0.943574 0.538528
v -1.649403 0.943574 2.274999
v -1.652403 0.940574 2.274998
v -1.652403 0.940574 0.538528
v -1.649403 0.943574 2.274999
v -1.649404 0.981547 2.274999
v -1.652404 0.981547 2.277999
v -1.652403 0.943574 2.277998
v -1.649404 0.981547 2.274999
v -1.649403 0.981547 0.538528
v -1.652403 0.984547 0.538528
v -1.652404 0.984547 2.274999
vn 1.000000 0.000000 0.000000
vn 1.000000 0.000000 0.000000
vn 1.000000 0.000000 0.000000
vn 1.000000 0.000000 0.000000
vn 0.577300 -0.577300 -0.577300
vn 0.577300 -0.577300 -0.577300
vn 0.577300 -0.577300 -0.577300
vn 0.707100 -0.707100 0.000000
vn 0.707100 -0.707100 0.000000
vn 0.707100 -0.707100 0.000000
vn 0.707100 -0.707100 0.000000
vn 0.707100 0.000000 0.707100
vn 0.707100 0.000000 0.707100
vn 0.707100 0.000000 0.707100
vn 0.707100 0.000000 0.707100
vn 0.707100 0.707100 0.000000
vn 0.707100 0.707100 0.000000
vn 0.707100 0.707100 0.000000
vn 0.707100 0.707100 0.000000
vt 0.955800 0.055600
vt 0.955800 0.087600
vt 0.006800 0.087600
vt 0.006800 0.055600
vt 0.955800 0.055600
vt 0.955800 0.053000
vt 0.957500 0.055600
vt 0.955800 0.055600
vt 0.006800 0.055600
vt 0.006800 0.053000
vt 0.955800 0.053000
vt 0.006800 0.055600
vt 0.006800 0.087600
vt 0.005100 0.087600
vt 0.005100 0.055600
vt 0.006800 0.087600
vt 0.955800 0.087600
vt 0.955800 0.090100
vt 0.006800 0.090100
f 1/1/1 2/2/2 3/3/3
f 1/1/1 3/3/3 4/4/4
f 5/5/5 6/6/6 7/7/7
f 8/8/8 9/9/9 10/10/10
f 8/8/8 10/10/10 11/11/11
f 12/12/12 13/13/13 14/14/14
f 12/12/12 14/14/14 15/15/15
f 16/16/16 17/17/17 18/18/18
f 16/16/16 18/18/18 19/19/19
